# Blender 5.1.1
# www.blender.org
mtllib bowl.mtl
o bowl_diffuse
v -0.002965 -1.000446 -0.138853
v -0.004198 -1.000909 0.142903
v 0.082995 -0.980074 0.143551
v -0.101124 -0.974765 -0.143217
v 0.020684 -0.996585 -0.143909
v -0.166279 -0.957261 -0.011990
v -0.000755 -0.928940 -0.143032
v 0.176193 -0.951705 0.143808
v -0.264673 -0.928383 -0.143929
v 0.249765 -0.932462 0.143615
v -0.152235 -0.958564 0.143258
v 0.273435 -0.926545 -0.143309
v 0.090202 -0.897069 0.142841
v 0.179060 -0.952771 -0.143351
v -0.409250 -0.889141 -0.143140
v 0.147845 -0.879136 -0.143645
v -0.001605 -0.925798 -0.103965
v 0.027322 -0.916303 -0.055270
v -0.011112 -0.922360 -0.054167
v 0.001071 -0.925181 0.142923
v 0.067340 -0.904322 -0.104335
v 0.413384 -0.890071 0.144048
v -0.132157 -0.885527 0.143276
v 0.417314 -0.889004 -0.017395
v -0.222901 -0.856820 -0.143812
v -0.080099 -0.899708 -0.103892
v -0.086762 -0.897660 -0.054477
v -0.247603 -0.849488 0.143428
v 0.415563 -0.888152 -0.143008
v 0.077405 -0.901124 -0.055384
v -0.411405 -0.888304 0.143965
v 0.124602 -0.884365 -0.104068
v -0.163111 -0.871952 -0.104209
v 0.143469 -0.879520 -0.055287
v 0.246731 -0.846592 0.143122
v 0.372471 -0.820667 -0.143412
v -0.477023 -0.829127 -0.143887
v -0.166058 -0.870238 -0.054995
v -0.468152 -0.837519 0.143955
v -0.375716 -0.816292 0.143503
v 0.375702 -0.817646 0.142738
v 0.299042 -0.834136 -0.144001
v 0.213231 -0.858361 -0.103607
v 0.196566 -0.862914 -0.054091
v -0.241806 -0.847240 -0.054521
v -0.378951 -0.810261 -0.143846
v -0.285962 -0.833089 -0.103756
v 0.244728 -0.848025 -0.053752
v 0.115451 -0.623569 -0.054868
v -0.341472 -0.818380 0.139060
v 0.280790 -0.838718 -0.104318
v 0.478099 -0.825882 -0.143470
v -0.371897 -0.814205 -0.053244
v 0.428224 -0.771302 0.143380
v 0.372032 -0.818622 -0.103962
v 0.374449 -0.820713 -0.054687
v 0.303229 -0.831843 -0.054911
v 0.420138 -0.776212 -0.051469
v 0.562443 -0.746704 0.143936
v 0.454085 -0.742981 -0.143044
v -0.378075 -0.809604 -0.105373
v 0.422463 -0.772954 -0.103673
v 0.588891 -0.716684 -0.144804
v -0.451390 -0.741954 -0.054477
v -0.692446 -0.615429 0.143272
v 0.600612 -0.710200 -0.022456
v -0.536460 -0.658198 -0.144095
v -0.640011 -0.667190 -0.142896
v 0.446504 -0.743257 -0.055126
v 0.537157 -0.662609 0.142138
v -0.491489 -0.697840 -0.103640
v 0.719901 -0.590810 0.043388
v -0.628093 -0.569029 0.143416
v 0.708405 -0.598523 0.143446
v 0.557024 -0.644781 -0.144111
v 0.540559 -0.658488 -0.104780
v -0.628122 -0.565746 -0.054991
v 0.587723 -0.617454 0.143344
v -0.609435 -0.584709 -0.103427
v 0.540713 -0.655892 -0.054005
v 0.742894 -0.564255 -0.144320
v 0.594994 -0.602962 -0.053238
v 0.600001 -0.599055 -0.105176
v 0.130622 -0.308285 -0.104815
v -0.657550 -0.540500 -0.143767
v -0.798791 -0.505139 -0.143572
v 0.638196 -0.550428 -0.055054
v 0.673269 -0.526841 0.142540
v 0.658965 -0.534291 -0.103979
v -0.690213 -0.499142 -0.103488
v 0.884462 -0.417803 0.143244
v 0.656869 -0.540067 -0.143147
v 0.707130 -0.490205 -0.055181
v 0.710316 -0.483880 -0.103940
v 0.844815 -0.459307 -0.144032
v -0.750457 -0.445284 -0.054533
v 0.739333 -0.459057 -0.143411
v -0.816072 -0.490335 0.144250
v -0.510485 -0.308026 -0.054585
v -0.749283 -0.448305 -0.142607
v 0.888300 -0.414898 -0.143272
v 0.760160 -0.438861 0.142933
v 0.817022 -0.378953 -0.055409
v -0.888295 -0.415337 -0.142393
v -0.890665 -0.411119 0.018422
v 0.812973 -0.381598 -0.104185
v 0.501949 -0.079046 -0.104699
v -0.890269 -0.408537 0.143714
v 0.821689 -0.370925 -0.144122
v -0.822516 -0.366844 -0.054403
v 0.810728 -0.382283 0.143222
v -0.820056 -0.365733 -0.142734
v 0.942608 -0.214326 -0.019828
v -0.815697 -0.371410 -0.103784
v -0.927881 -0.224065 -0.143893
v -0.241972 -0.087337 -0.054369
v -0.949945 -0.179925 -0.132286
v 0.821531 -0.342941 -0.055114
v -0.842014 -0.267288 0.143352
v 0.849199 -0.241061 -0.143738
v -0.815219 -0.377044 0.143144
v -0.935117 -0.231365 0.144154
v 0.838030 -0.276614 -0.104024
v -0.838143 -0.284722 -0.143429
v -0.832366 -0.291411 -0.054021
v 0.843940 -0.258377 0.142693
v 0.840574 -0.265747 -0.054487
v 0.922254 -0.286174 -0.144117
v 0.927801 -0.264223 0.144496
v -0.575128 0.050520 -0.104262
v -0.859063 -0.201842 -0.054846
v -0.847793 -0.240521 -0.103530
v 0.592819 -0.141839 -0.054932
v 0.961342 -0.145719 0.144317
v -0.866040 -0.189404 -0.144153
v 0.860594 -0.197696 -0.054535
v 0.872233 -0.164343 -0.104126
v 0.966572 -0.125934 -0.143757
v 0.879374 -0.143152 0.142318
v 0.072340 0.062214 -0.054363
v -0.895515 -0.092810 0.143053
v -0.884874 -0.115082 -0.104557
v 0.893235 -0.104089 -0.143243
v -0.895464 -0.086077 -0.144199
v -0.975984 -0.079241 0.144153
v -0.180361 -0.319405 -0.104384
v 0.886628 -0.118351 -0.054615
v 0.907220 -0.059344 -0.104314
v 0.997403 -0.012570 0.144089
v -0.894381 -0.086581 -0.054607
v 0.998229 -0.002423 -0.143714
v -0.998640 0.000942 0.143800
v 0.927793 -0.001601 0.143037
v 0.922891 0.000127 -0.142917
v -0.913672 -0.030684 -0.054339
v -0.921997 -0.001161 0.142935
v -0.919521 0.004660 -0.143566
v -0.919940 -0.000286 -0.104719
v 0.513314 0.268248 -0.054396
v 0.916548 -0.031976 -0.054382
v 0.920170 0.010734 -0.104165
v 0.903788 0.061697 -0.055084
v -0.918776 0.012027 -0.054879
v -0.695078 0.101098 -0.054330
v 0.999319 -0.001868 0.028728
v 0.957456 0.154459 0.144101
v -0.998261 0.002806 -0.141436
v -0.889514 0.093202 -0.054834
v 0.885281 0.124341 0.142830
v -0.887224 0.090653 -0.104945
v -0.962909 0.129466 0.143423
v 0.879534 0.143390 -0.143331
v 0.888092 0.109316 -0.104950
v -0.863341 0.170047 -0.104484
v -0.869795 0.158922 -0.054534
v -0.879995 0.136572 0.143579
v -0.863562 0.170865 -0.143352
v -0.929180 0.257134 0.043026
v 0.963384 0.124863 -0.144104
v 0.840571 0.268226 -0.054066
v 0.870687 0.164885 -0.054263
v -0.849271 0.212918 -0.055051
v 0.925778 0.270360 -0.142927
v -0.926639 0.254462 0.143469
v 0.861504 0.203752 -0.104924
v -0.310661 0.423029 -0.054021
v -0.951631 0.171098 -0.143737
v -0.841032 0.237355 -0.104316
v 0.851231 0.237623 0.143085
v -0.830834 0.292724 0.143969
v -0.816797 0.342032 -0.143647
v -0.831870 0.274562 -0.054635
v -0.910343 0.313676 -0.143469
v -0.819483 0.324913 -0.103631
v 0.890326 0.409172 0.020450
v 0.832485 0.302002 -0.143870
v 0.830461 0.305543 -0.103922
v 0.890560 0.404638 0.143431
v -0.890630 0.407974 0.141453
v 0.029783 0.460751 -0.104581
v -0.817148 0.339228 -0.054355
v 0.818974 0.365165 -0.055246
v -0.811313 0.374956 -0.054977
v -0.810768 0.376316 0.143435
v 0.819526 0.368129 -0.103683
v 0.819070 0.371166 -0.143749
v -0.815691 0.367761 -0.104252
v -0.818248 0.371790 -0.143756
v -0.813910 0.374391 0.027500
v -0.668462 0.522653 -0.055295
v 0.813221 0.380112 0.142699
v 0.887817 0.411033 -0.143648
v 0.764867 0.427502 -0.055015
v 0.039740 0.522129 -0.054108
v -0.724690 0.464773 -0.054968
v -0.737087 0.449826 -0.105590
v -0.887133 0.408102 -0.142037
v 0.549489 0.648373 -0.103663
v -0.810357 0.491032 0.144201
v 0.667579 0.524576 -0.144346
v -0.685096 0.509248 0.144131
v 0.683509 0.505735 -0.103880
v 0.824330 0.483388 0.144190
v -0.597671 0.599306 0.141578
v 0.751361 0.555236 -0.144735
v -0.680649 0.499896 -0.103626
v -0.698708 0.488966 -0.143773
v 0.635717 0.564310 0.143227
v 0.501150 0.694760 -0.054811
v -0.786587 0.517546 -0.142267
v 0.715658 0.593225 0.143124
v -0.582922 0.612667 -0.143622
v -0.428140 0.756450 -0.104199
v -0.679154 0.626835 0.143905
v -0.538410 0.651533 -0.104111
v -0.617023 0.572629 -0.105215
v -0.229146 0.849543 -0.054902
v -0.630250 0.674192 -0.142219
v -0.126704 0.881910 -0.104038
v 0.568884 0.738917 -0.144241
v 0.505526 0.694277 -0.144455
v -0.532448 0.658622 -0.054460
v -0.677001 0.620312 -0.143956
v -0.522506 0.673059 0.143379
v 0.493352 0.704327 0.142402
v 0.388826 0.801038 -0.104368
v -0.609739 0.694766 0.143192
v -0.467288 0.722440 -0.143488
v -0.457454 0.728405 -0.054302
v -0.374642 0.813107 0.143610
v 0.518424 0.790049 0.143606
v -0.538538 0.765481 0.144037
v -0.294070 0.828922 -0.055072
v 0.381762 0.809973 0.142163
v -0.404950 0.782537 -0.053467
v -0.371499 0.813067 -0.104071
v -0.367355 0.812297 -0.054613
v -0.371959 0.814728 -0.143607
v 0.376524 0.813346 -0.053955
v -0.516490 0.787026 -0.142283
v -0.291072 0.829398 -0.104187
v 0.301710 0.828781 -0.054279
v 0.299114 0.829716 -0.104804
v 0.145114 0.877160 -0.104198
v -0.209649 0.853772 -0.104641
v -0.146796 0.875345 -0.055061
v 0.413264 0.887711 -0.143564
v 0.374818 0.813684 -0.144343
v 0.212989 0.856539 -0.105202
v 0.084143 0.898502 -0.054960
v -0.412611 0.884903 -0.143262
v 0.267527 0.841011 -0.144406
v -0.196097 0.860533 -0.143199
v 0.417237 0.887739 0.142099
v 0.224866 0.853525 0.142778
v -0.230618 0.851939 0.142955
v -0.309671 0.914798 0.144136
v 0.190865 0.863861 -0.054523
v 0.160014 0.874437 -0.144320
v -0.412956 0.886834 0.143520
v 0.264309 0.925900 -0.143873
v -0.005655 0.925562 -0.104313
v -0.112833 0.888595 0.143761
v 0.002792 0.927153 0.143017
v -0.280215 0.923546 -0.142980
v -0.060550 0.902983 -0.055099
v 0.070524 0.906713 -0.144132
v 0.069822 0.904829 -0.104991
v -0.009475 0.926425 -0.142993
v 0.005675 0.924364 -0.054446
v 0.290131 0.919550 0.143388
v -0.130276 0.964326 0.143776
v -0.105134 0.973948 -0.141562
v 0.149016 0.960584 0.143449
v 0.131395 0.966129 -0.142897
v -0.003001 0.999940 -0.142275
v -0.001758 1.002081 0.143475
vn 0.1826 -0.6860 0.7044
vn -0.0699 -0.9008 -0.4285
vn 0.1359 -0.7044 -0.6967
vn -0.0149 -0.7564 0.6540
vn -0.2647 -0.9643 -0.0002
vn -0.2372 -0.8480 -0.4739
vn -0.1863 -0.6746 0.7143
vn 0.1871 -0.6824 -0.7066
vn -0.1840 -0.6760 -0.7135
vn -0.0068 0.6278 0.7784
vn 0.1888 -0.6703 0.7177
vn 0.1772 -0.6804 0.7111
vn -0.2164 0.6764 0.7041
vn 0.2124 0.6682 0.7131
vn -0.3604 -0.6580 0.6612
vn -0.2067 0.6621 -0.7204
vn 0.1874 -0.6771 -0.7116
vn 0.0020 0.5969 -0.8023
vn -0.3595 -0.6637 -0.6560
vn 0.4981 -0.8671 -0.0050
vn 0.0710 0.7675 0.6371
vn -0.1610 0.6983 0.6974
vn 0.3640 -0.6557 0.6615
vn 0.3757 -0.6547 -0.6559
vn -0.2128 0.6748 0.7066
vn 0.0097 0.7389 -0.6737
vn -0.2481 0.7451 -0.6191
vn 0.2176 0.6478 -0.7301
vn 0.2284 0.6937 0.6831
vn -0.2801 0.5488 -0.7876
vn 0.2038 0.6433 -0.7380
vn -0.1540 0.7017 -0.6956
vn -0.2127 0.6567 -0.7236
vn -0.2202 0.6672 0.7116
vn 0.2072 0.6377 -0.7419
vn -0.1917 0.6924 0.6956
vn 0.1698 0.5423 0.8229
vn 0.2136 0.6615 0.7189
vn -0.0000 -0.0003 1.0000
vn 0.2501 0.5532 0.7946
vn -0.4869 -0.5181 0.7032
vn -0.1934 0.6638 -0.7225
vn -0.2218 0.6740 0.7046
vn 0.2037 0.6815 0.7029
vn 0.1838 0.8794 0.4391
vn 0.3104 0.5453 -0.7787
vn 0.1879 0.6360 -0.7484
vn -0.4868 -0.5211 -0.7011
vn -0.1907 0.7014 -0.6868
vn -0.1941 0.6834 0.7038
vn -0.3041 0.5667 0.7657
vn 0.4902 -0.4989 -0.7147
vn -0.1459 0.6793 0.7192
vn -0.0963 0.1020 0.9901
vn 0.3548 0.6806 0.6410
vn 0.4951 -0.4980 0.7119
vn -0.3389 0.6582 -0.6722
vn -0.3430 0.6579 0.6704
vn -0.4921 0.5117 -0.7042
vn 0.3739 0.6685 -0.6429
vn -0.5324 0.5836 0.6131
vn -0.4850 0.5130 -0.7082
vn 0.4836 -0.4957 -0.7214
vn -0.0012 -0.0006 -1.0000
vn 0.4731 0.4846 -0.7357
vn -0.5029 -0.5026 0.7032
vn 0.7012 -0.7130 -0.0003
vn 0.4710 0.4915 -0.7325
vn 0.4911 0.5159 0.7019
vn -0.5059 -0.5020 -0.7014
vn -0.4983 0.5076 0.7029
vn -0.1922 0.2062 0.9594
vn -0.5424 0.5480 0.6368
vn 0.4975 0.4976 0.7106
vn 0.7139 -0.7002 0.0076
vn -0.4882 0.4888 -0.7231
vn 0.4968 -0.4850 0.7197
vn -0.5532 0.5601 -0.6167
vn -0.0002 -0.0008 -1.0000
vn -0.0499 0.0579 0.9971
vn -0.0943 0.0828 0.9921
vn 0.4996 -0.4896 -0.7146
vn 0.2240 0.2251 0.9482
vn -0.5735 0.5726 0.5859
vn 0.4844 0.4923 -0.7232
vn 0.4756 0.4612 -0.7490
vn -0.5934 0.5703 -0.5680
vn -0.4863 0.4711 -0.7359
vn -0.5008 0.5004 0.7063
vn 0.5133 0.4925 0.7028
vn -0.5002 0.4861 -0.7165
vn -0.4992 -0.4907 -0.7141
vn 0.4653 0.4572 -0.7579
vn -0.4846 0.4829 -0.7294
vn 0.6517 -0.3770 0.6582
vn -0.4998 0.4968 0.7095
vn -0.5106 -0.4881 0.7078
vn -0.4794 0.4858 -0.7309
vn 0.5020 -0.4884 -0.7137
vn -0.6590 -0.3756 -0.6516
vn -0.0000 -0.0008 1.0000
vn 0.5608 0.3068 0.7690
vn -0.6976 0.3274 0.6373
vn 0.4667 0.4551 -0.7583
vn -0.5097 0.4816 0.7130
vn 0.6640 -0.3731 -0.6480
vn -0.8793 -0.4763 0.0059
vn -0.6612 -0.3519 0.6626
vn -0.6358 0.3833 -0.6700
vn -0.5746 0.3038 0.7600
vn 0.6509 0.3633 -0.6665
vn 0.0010 -0.0000 -1.0000
vn -0.5456 0.2466 -0.8010
vn 0.6523 0.1797 -0.7364
vn 0.5707 0.2716 -0.7749
vn 0.9647 -0.2634 0.0007
vn 0.7002 0.3145 0.6410
vn 0.6714 -0.1887 0.7167
vn 0.6775 -0.1807 -0.7130
vn -0.3601 -0.0826 -0.9293
vn -0.9173 -0.2539 -0.3069
vn 0.0001 -0.0007 1.0000
vn -0.6866 0.1292 0.7154
vn -0.6790 0.1974 -0.7071
vn -0.6595 0.1690 -0.7325
vn -0.6773 -0.1762 0.7142
vn 0.0001 -0.0008 1.0000
vn 0.6875 0.1585 -0.7087
vn 0.6742 0.1548 0.7222
vn 0.6853 0.1886 0.7034
vn -0.6895 0.2000 0.6961
vn -0.6781 0.1798 0.7127
vn -0.0001 -0.0000 -1.0000
vn 0.6700 0.2046 0.7136
vn 0.6516 0.1884 -0.7348
vn 0.6746 -0.1861 0.7144
vn -0.6840 0.2208 0.6952
vn -0.6593 0.2117 -0.7215
vn -0.6676 0.2105 0.7141
vn 0.0005 -0.0007 1.0000
vn -0.6661 0.2219 0.7121
vn 0.6862 -0.1784 -0.7052
vn -0.6668 0.2155 -0.7134
vn -0.6728 -0.1848 0.7164
vn 0.6772 0.2063 0.7063
vn 0.6611 0.1896 -0.7260
vn 0.6638 0.2142 0.7166
vn 0.6551 0.1984 -0.7290
vn -0.0014 0.0004 1.0000
vn -0.7363 0.0920 0.6704
vn -0.7027 0.1944 -0.6844
vn 0.7458 -0.0202 0.6658
vn -0.7665 0.0024 -0.6423
vn -0.6190 0.0023 0.7854
vn 1.0000 0.0048 0.0010
vn -0.7560 0.0006 0.6546
vn 0.7528 0.0028 -0.6583
vn -0.6208 -0.0039 -0.7839
vn 0.7662 -0.0118 -0.6425
vn 0.7062 0.1657 0.6884
vn 0.6331 -0.0084 0.7741
vn 0.7414 -0.0877 0.6654
vn 0.6149 -0.0424 -0.7875
vn -0.7380 -0.0806 -0.6700
vn -0.4930 -0.4812 -0.7248
vn 0.0008 -0.0000 1.0000
vn -0.6899 -0.1693 0.7038
vn -0.0002 0.0004 -1.0000
vn 0.6795 0.1772 0.7120
vn -0.6851 -0.2239 0.6932
vn 0.6631 -0.2126 0.7177
vn 0.6735 0.1757 -0.7180
vn 0.6439 -0.2146 -0.7344
vn -0.6776 0.1860 -0.7115
vn 0.6732 -0.1931 -0.7138
vn -0.6810 -0.2099 -0.7016
vn 0.7300 -0.2299 0.6436
vn -0.6807 0.1892 0.7077
vn 0.6686 -0.2074 0.7142
vn -0.6742 -0.1977 -0.7116
vn 0.6795 -0.1975 -0.7066
vn -0.6633 -0.2028 0.7203
vn 0.0783 -0.0271 0.9966
vn -0.9663 0.2573 0.0063
vn -0.6758 -0.1788 0.7150
vn -0.0007 0.0003 1.0000
vn 0.6871 0.1851 -0.7026
vn -0.6812 -0.2001 -0.7042
vn -0.6689 0.1753 0.7224
vn 0.5878 -0.1846 -0.7877
vn -0.6835 -0.1938 0.7038
vn 0.6611 -0.1889 0.7261
vn 0.6815 -0.1892 0.7070
vn -0.1465 0.0442 -0.9882
vn 0.7250 -0.0793 -0.6841
vn -0.6653 0.3704 -0.6482
vn 0.0004 0.0012 1.0000
vn 0.6613 0.3395 0.6688
vn 0.8809 0.4733 -0.0000
vn -0.6863 -0.1669 -0.7079
vn 0.6717 -0.1265 -0.7300
vn -0.6566 -0.1465 -0.7399
vn 0.5001 -0.4919 0.7127
vn 0.1156 -0.1115 -0.9870
vn 0.6914 -0.1227 0.7120
vn -0.6850 0.3736 0.6254
vn -0.5076 0.4871 0.7107
vn -0.6752 -0.3267 0.6613
vn -0.5583 -0.3172 0.7666
vn 0.6748 -0.3381 0.6560
vn 0.5845 -0.3010 0.7535
vn -0.5403 -0.2984 -0.7868
vn 0.5089 -0.2010 -0.8371
vn -0.6709 -0.3389 -0.6596
vn 0.6922 -0.2855 -0.6629
vn 0.9203 -0.3913 -0.0070
vn 0.6571 0.3647 -0.6597
vn -0.5167 -0.4824 0.7073
vn 0.6707 -0.6489 0.3593
vn 0.5346 -0.5231 -0.6638
vn 0.5217 0.4807 0.7048
vn -0.5192 0.4956 -0.6963
vn 0.3694 -0.3501 0.8608
vn 0.5003 -0.4954 -0.7101
vn 0.5055 0.4909 -0.7096
vn -0.5005 -0.4835 -0.7182
vn -0.4977 -0.4910 0.7150
vn 0.6818 -0.6790 -0.2720
vn 0.5882 -0.5594 -0.5841
vn 0.4739 -0.4951 -0.7282
vn -0.5136 -0.4930 -0.7022
vn -0.4929 -0.5061 0.7077
vn 0.5025 0.5034 0.7029
vn -0.1156 0.1157 -0.9865
vn 0.4759 -0.4680 -0.7447
vn 0.4736 -0.4785 -0.7394
vn -0.5716 0.5741 -0.5863
vn -0.5012 0.5022 0.7046
vn 0.2039 -0.6684 0.7153
vn 0.4870 -0.5084 0.7102
vn 0.4863 -0.5043 0.7136
vn 0.4966 0.5060 -0.7052
vn -0.4715 -0.4880 -0.7346
vn 0.2252 -0.6409 -0.7338
vn -0.4961 0.5065 0.7053
vn 0.2135 -0.6661 0.7146
vn 0.4922 0.5055 0.7086
vn -0.4935 -0.5085 0.7056
vn 0.4802 -0.4915 0.7265
vn 0.4710 -0.4916 -0.7324
vn -0.3997 -0.6063 -0.6875
vn -0.4974 0.5132 -0.6995
vn -0.4955 0.5025 0.7085
vn 0.4813 -0.5307 0.6977
vn 0.1885 -0.6563 0.7306
vn 0.3100 -0.5568 0.7706
vn 0.3204 -0.6568 0.6826
vn -0.3220 -0.5665 0.7585
vn -0.2652 -0.5380 -0.8001
vn 0.3493 -0.6582 -0.6669
vn 0.1549 -0.6196 -0.7695
vn -0.2130 -0.6726 0.7087
vn 0.2876 -0.5410 -0.7903
vn 0.3663 0.6633 -0.6526
vn -0.3513 -0.6810 0.6425
vn -0.1798 -0.6539 -0.7349
vn 0.2196 -0.6798 -0.6997
vn -0.1860 -0.6696 0.7191
vn 0.2134 -0.6671 0.7138
vn -0.3749 0.6578 0.6533
vn -0.3745 0.6511 -0.6601
vn -0.2090 -0.6652 -0.7168
vn -0.1965 -0.6651 -0.7204
vn 0.2119 -0.6561 -0.7243
vn -0.2240 -0.6407 -0.7344
vn -0.2191 -0.6643 0.7147
vn 0.1969 -0.6858 0.7007
vn 0.3758 0.6747 0.6353
vn -0.2052 -0.6852 0.6989
vn -0.2182 -0.6550 -0.7235
vn -0.1850 0.6770 0.7124
vn 0.1840 0.6759 0.7137
vn 0.1882 0.6784 -0.7102
vn -0.1929 0.6827 -0.7048
vn -0.2108 -0.6765 -0.7057
vn 0.2183 -0.6708 0.7087
vn 0.0045 -0.6185 0.7857
vn -0.0054 -0.7692 0.6389
vn -0.2074 -0.6366 -0.7428
vn 0.0386 -0.6103 -0.7912
vn 0.0198 -0.7500 -0.6612
vn 0.1940 0.6791 0.7080
vn 0.1896 0.6918 -0.6967
vn -0.1923 0.6763 0.7111
vn -0.1890 0.6965 -0.6923
vn -0.0046 0.7551 -0.6555
vn -0.0038 0.7580 0.6522
vt 0.302602 0.647326
vt 0.320345 0.670476
vt 0.307494 0.668171
vt 0.373587 0.186325
vt 0.387533 0.190581
vt 0.374791 0.211097
vt 0.378182 0.171548
vt 0.392187 0.178294
vt 0.342008 0.674917
vt 0.313355 0.672825
vt 0.032162 0.338104
vt 0.035690 0.373310
vt 0.014249 0.377851
vt 0.426118 0.317728
vt 0.444997 0.285446
vt 0.456905 0.313487
vt 0.351942 0.662418
vt 0.351488 0.648137
vt 0.023733 0.325331
vt 0.053142 0.338560
vt 0.145007 0.104624
vt 0.166251 0.080708
vt 0.159082 0.106533
vt 0.172904 0.105341
vt 0.054136 0.325713
vt 0.060431 0.372728
vt 0.050148 0.377844
vt 0.429697 0.334184
vt 0.409365 0.320455
vt 0.302614 0.687782
vt 0.318348 0.691179
vt 0.394333 0.350619
vt 0.390131 0.360382
vt 0.377307 0.345085
vt 0.602963 0.336631
vt 0.590781 0.320165
vt 0.601449 0.316661
vt 0.012081 0.827097
vt 0.027336 0.826996
vt 0.022715 0.839992
vt 0.004857 0.850862
vt 0.366160 0.273031
vt 0.373207 0.251725
vt 0.412099 0.284930
vt 0.934081 0.374594
vt 0.906328 0.369075
vt 0.935929 0.363986
vt 0.921969 0.237141
vt 0.940248 0.233381
vt 0.941443 0.249802
vt 0.149386 0.127414
vt 0.141039 0.118285
vt 0.452128 0.335454
vt 0.391971 0.338339
vt 0.411264 0.252086
vt 0.749096 0.989718
vt 0.746962 0.969263
vt 0.755752 0.978947
vt 0.071010 0.325176
vt 0.068343 0.323645
vt 0.316862 0.700717
vt 0.306361 0.702956
vt 0.337439 0.705769
vt 0.934655 0.359523
vt 0.545372 0.944846
vt 0.536677 0.939050
vt 0.538012 0.930965
vt 0.085154 0.350541
vt 0.403643 0.229809
vt 0.375567 0.335103
vt 0.452935 0.345930
vt 0.386242 0.229654
vt 0.438192 0.348189
vt 0.517498 0.891519
vt 0.530610 0.896260
vt 0.523229 0.928032
vt 0.378817 0.325593
vt 0.395823 0.328525
vt 0.980115 0.839486
vt 0.976466 0.854479
vt 0.975731 0.840327
vt 0.936462 0.207793
vt 0.947695 0.227864
vt 0.170703 0.128332
vt 0.272242 0.083131
vt 0.234288 0.041491
vt 0.259535 0.041160
vt 0.929605 0.888107
vt 0.916825 0.901119
vt 0.926387 0.890061
vt 0.135589 0.971163
vt 0.131751 0.984770
vt 0.123294 0.974803
vt 0.546974 0.912931
vt 0.922498 0.221659
vt 0.312315 0.979716
vt 0.322908 0.978490
vt 0.308129 0.987092
vt 0.203485 0.169684
vt 0.181799 0.142462
vt 0.204226 0.146446
vt 0.221321 0.165506
vt 0.846576 0.186115
vt 0.847682 0.200573
vt 0.828119 0.190705
vt 0.572347 0.918377
vt 0.549505 0.908384
vt 0.172321 0.162324
vt 0.157468 0.160099
vt 0.962913 0.847567
vt 0.812852 0.354360
vt 0.818478 0.339429
vt 0.817392 0.369625
vt 0.203613 0.191799
vt 0.267373 0.024221
vt 0.626088 0.169143
vt 0.654179 0.185461
vt 0.625216 0.186569
vt 0.652670 0.162547
vt 0.603591 0.294246
vt 0.591727 0.284304
vt 0.610039 0.283198
vt 0.858171 0.428628
vt 0.853414 0.412762
vt 0.864270 0.405789
vt 0.929009 0.900378
vt 0.927455 0.911540
vt 0.910811 0.912212
vt 0.606140 0.961046
vt 0.593044 0.952291
vt 0.605084 0.944923
vt 0.027668 0.119569
vt 0.017521 0.146070
vt 0.021569 0.111910
vt 0.840297 0.347036
vt 0.985663 0.508055
vt 0.974671 0.530524
vt 0.967067 0.530349
vt 0.666986 0.164139
vt 0.899272 0.658948
vt 0.897301 0.673967
vt 0.890986 0.655558
vt 0.559101 0.947452
vt 0.588134 0.291084
vt 0.163045 0.570053
vt 0.144311 0.597214
vt 0.139709 0.570413
vt 0.914431 0.659826
vt 0.376520 0.045380
vt 0.371379 0.063762
vt 0.351688 0.061036
vt 0.145391 0.545658
vt 0.857990 0.684362
vt 0.846414 0.693781
vt 0.830639 0.678056
vt 0.003015 0.124076
vt 0.461400 0.296162
vt 0.482258 0.298962
vt 0.476409 0.330529
vt 0.340640 0.054757
vt 0.367508 0.009648
vt 0.388014 0.228759
vt 0.388766 0.219473
vt 0.405472 0.219880
vt 0.984306 0.605647
vt 0.985458 0.629611
vt 0.969317 0.630452
vt 0.195748 0.143441
vt 0.973219 0.597076
vt 0.173552 0.549577
vt 0.654305 0.195109
vt 0.639471 0.197411
vt 0.381345 0.067043
vt 0.388504 0.059622
vt 0.206259 0.121818
vt 0.389751 0.212189
vt 0.402919 0.207825
vt 0.180080 0.570415
vt 0.145528 0.539022
vt 0.158785 0.538620
vt 0.013285 0.520400
vt 0.005263 0.485440
vt 0.029771 0.486317
vt 0.179638 0.561722
vt 0.006531 0.465154
vt 0.958284 0.561542
vt 0.971683 0.561545
vt 0.964671 0.582836
vt 0.878024 0.848666
vt 0.877373 0.817402
vt 0.887222 0.841515
vt 0.183088 0.579778
vt 0.895547 0.921643
vt 0.228582 0.431339
vt 0.204079 0.422654
vt 0.234648 0.385431
vt 0.216607 0.954774
vt 0.222498 0.944198
vt 0.238623 0.956479
vt 0.849414 0.932222
vt 0.842006 0.954598
vt 0.848603 0.913466
vt 0.239131 0.428726
vt 0.893287 0.810351
vt 0.389167 0.014011
vt 0.216025 0.373569
vt 0.224906 0.932846
vt 0.229829 0.123979
vt 0.241340 0.399026
vt 0.222280 0.919861
vt 0.822415 0.939218
vt 0.237434 0.144632
vt 0.163258 0.840346
vt 0.125714 0.831020
vt 0.155602 0.815895
vt 0.853205 0.269207
vt 0.855189 0.257853
vt 0.860896 0.276706
vt 0.248371 0.955847
vt 0.188338 0.024917
vt 0.224404 0.053206
vt 0.185671 0.052111
vt 0.953971 0.828940
vt 0.937620 0.820257
vt 0.964338 0.803681
vt 0.362292 0.415623
vt 0.343729 0.434951
vt 0.341126 0.408364
vt 0.413138 0.030181
vt 0.330489 0.434514
vt 0.122028 0.809048
vt 0.331447 0.411428
vt 0.147816 0.791717
vt 0.502820 0.314484
vt 0.252123 0.742460
vt 0.243990 0.744171
vt 0.259907 0.706770
vt 0.245701 0.922748
vt 0.132436 0.790126
vt 0.186045 0.079276
vt 0.221917 0.077784
vt 0.389915 0.632614
vt 0.365145 0.641464
vt 0.389818 0.612736
vt 0.453691 0.970870
vt 0.440173 0.994295
vt 0.438560 0.978225
vt 0.033105 0.984555
vt 0.020315 0.993658
vt 0.018172 0.969221
vt 0.387741 0.653287
vt 0.871813 0.219780
vt 0.895462 0.211414
vt 0.896817 0.239321
vt 0.246626 0.375461
vt 0.471642 0.424862
vt 0.489770 0.426761
vt 0.488284 0.436164
vt 0.386693 0.664107
vt 0.372801 0.663532
vt 0.318135 0.407732
vt 0.942668 0.023392
vt 0.960723 0.003032
vt 0.956098 0.034008
vt 0.362849 0.673499
vt 0.116809 0.788743
vt 0.834677 0.294665
vt 0.847070 0.288731
vt 0.830451 0.318847
vt 0.493069 0.404346
vt 0.363784 0.654641
vt 0.213050 0.971284
vt 0.225394 0.982803
vt 0.212545 0.989513
vt 0.079674 0.280650
vt 0.079644 0.244795
vt 0.102951 0.270337
vt 0.881638 0.197522
vt 0.103205 0.358587
vt 0.121326 0.329681
vt 0.125521 0.339886
vt 0.184564 0.785173
vt 0.180315 0.759704
vt 0.212472 0.755965
vt 0.129243 0.788019
vt 0.496743 0.403490
vt 0.503729 0.372318
vt 0.519900 0.394424
vt 0.496762 0.437094
vt 0.134880 0.942968
vt 0.132956 0.928322
vt 0.143062 0.930716
vt 0.153036 0.927747
vt 0.153551 0.932853
vt 0.523017 0.786389
vt 0.519643 0.815869
vt 0.512865 0.806482
vt 0.066001 0.043830
vt 0.061846 0.025761
vt 0.087146 0.034196
vt 0.913447 0.255972
vt 0.906700 0.283269
vt 0.905945 0.260025
vt 0.057260 0.095840
vt 0.070913 0.061960
vt 0.069048 0.102283
vt 0.123263 0.266678
vt 0.122825 0.238314
vt 0.643101 0.522242
vt 0.632511 0.505365
vt 0.652006 0.510295
vt 0.135700 0.915481
vt 0.953153 0.655539
vt 0.970204 0.667059
vt 0.967720 0.681872
vt 0.987707 0.016404
vt 0.980374 0.033295
vt 0.973300 0.013937
vt 0.946885 0.108807
vt 0.933713 0.093422
vt 0.949965 0.090244
vt 0.159471 0.241962
vt 0.134242 0.208220
vt 0.176317 0.238965
vt 0.202377 0.834523
vt 0.195935 0.861882
vt 0.171789 0.847109
vt 0.607921 0.525184
vt 0.621036 0.480767
vt 0.143943 0.908095
vt 0.101825 0.234860
vt 0.094080 0.106961
vt 0.087110 0.104068
vt 0.735465 0.407665
vt 0.727656 0.391425
vt 0.739141 0.394301
vt 0.174820 0.219555
vt 0.444578 0.072779
vt 0.473941 0.048593
vt 0.461084 0.074885
vt 0.839962 0.848164
vt 0.810239 0.861343
vt 0.831834 0.842450
vt 0.651819 0.493816
vt 0.244998 0.674310
vt 0.243804 0.662363
vt 0.263479 0.641627
vt 0.548016 0.296560
vt 0.562239 0.278571
vt 0.562601 0.310311
vt 0.930549 0.774061
vt 0.947295 0.755049
vt 0.953860 0.780708
vt 0.759204 0.816262
vt 0.780377 0.823038
vt 0.775938 0.852275
vt 0.198080 0.204921
vt 0.475587 0.098332
vt 0.476924 0.107239
vt 0.449302 0.105382
vt 0.780383 0.944085
vt 0.806217 0.946325
vt 0.802218 0.967483
vt 0.175291 0.207968
vt 0.650583 0.468560
vt 0.659413 0.493026
vt 0.450462 0.046222
vt 0.443119 0.009057
vt 0.462646 0.036272
vt 0.445231 0.094132
vt 0.182149 0.206969
vt 0.777230 0.801736
vt 0.729740 0.378561
vt 0.733962 0.356235
vt 0.832215 0.806742
vt 0.809497 0.813203
vt 0.832038 0.790983
vt 0.623882 0.475229
vt 0.633900 0.473169
vt 0.541129 0.271187
vt 0.487037 0.003792
vt 0.932774 0.748496
vt 0.768839 0.152091
vt 0.764599 0.153847
vt 0.766763 0.143652
vt 0.599531 0.663485
vt 0.585931 0.660687
vt 0.603716 0.640251
vt 0.358060 0.258986
vt 0.359073 0.276349
vt 0.339554 0.255065
vt 0.506395 0.954825
vt 0.482745 0.960580
vt 0.510735 0.939795
vt 0.802071 0.934201
vt 0.553397 0.256193
vt 0.562817 0.264671
vt 0.352068 0.232145
vt 0.328116 0.232262
vt 0.767266 0.176430
vt 0.738109 0.167665
vt 0.665484 0.883269
vt 0.693813 0.849010
vt 0.676777 0.877179
vt 0.035629 0.662776
vt 0.024113 0.694076
vt 0.006816 0.673624
vt 0.739491 0.170962
vt 0.543801 0.877674
vt 0.566691 0.883023
vt 0.545255 0.887084
vt 0.897268 0.383247
vt 0.904878 0.404414
vt 0.876130 0.387271
vt 0.364057 0.291173
vt 0.364461 0.294770
vt 0.345202 0.290404
vt 0.982982 0.897753
vt 0.984474 0.909324
vt 0.959538 0.891083
vt 0.861085 0.783159
vt 0.877879 0.795404
vt 0.863787 0.796315
vt 0.244780 0.641066
vt 0.251519 0.617674
vt 0.581000 0.579319
vt 0.606059 0.594324
vt 0.565601 0.612444
vt 0.743385 0.148800
vt 0.353243 0.296432
vt 0.056009 0.880274
vt 0.063910 0.903061
vt 0.049768 0.899421
vt 0.985505 0.959873
vt 0.984949 0.967420
vt 0.979078 0.960605
vt 0.876363 0.787009
vt 0.344356 0.264461
vt 0.877259 0.745737
vt 0.878708 0.755913
vt 0.576170 0.636181
vt 0.746961 0.139475
vt 0.082297 0.405955
vt 0.076501 0.382959
vt 0.102322 0.385977
vt 0.572471 0.890841
vt 0.557604 0.903749
vt 0.124674 0.065331
vt 0.147884 0.062995
vt 0.127159 0.076476
vt 0.399870 0.878856
vt 0.389231 0.868268
vt 0.412627 0.870094
vt 0.885431 0.423328
vt 0.420353 0.867210
vt 0.427388 0.872520
vt 0.949137 0.185523
vt 0.966789 0.172477
vt 0.968339 0.201464
vt 0.081434 0.909323
vt 0.132543 0.095459
vt 0.882650 0.076714
vt 0.897238 0.077609
vt 0.885699 0.092911
vt 0.361506 0.333397
vt 0.334535 0.360446
vt 0.332109 0.336039
vt 0.074797 0.916909
vt 0.310039 0.331239
vt 0.312744 0.357462
vt 0.483712 0.631149
vt 0.499074 0.631075
vt 0.491276 0.641574
vt 0.001682 0.563733
vt 0.001914 0.548290
vt 0.005654 0.561732
vt 0.407230 0.856470
vt 0.892023 0.066627
vt 0.224361 0.509234
vt 0.214804 0.525413
vt 0.202136 0.504053
vt 0.395679 0.845551
vt 0.489818 0.663566
vt 0.512199 0.665595
vt 0.503060 0.682694
vt 0.282698 0.359927
vt 0.188138 0.545047
vt 0.387370 0.107936
vt 0.409613 0.111785
vt 0.388540 0.122970
vt 0.396290 0.098176
vt 0.081108 0.113970
vt 0.106212 0.112186
vt 0.079512 0.148606
vt 0.400589 0.131271
vt 0.134982 0.114940
vt 0.099818 0.144469
vt 0.869564 0.064238
vt 0.872902 0.052079
vt 0.136319 0.132029
vt 0.045673 0.124169
vt 0.052447 0.446408
vt 0.040300 0.442601
vt 0.058151 0.428933
vt 0.912682 0.965797
vt 0.906255 0.986681
vt 0.897340 0.969305
vt 0.060509 0.443351
vt 0.068955 0.433754
vt 0.425460 0.468419
vt 0.439431 0.500237
vt 0.416955 0.502770
vt 0.394125 0.517782
vt 0.398522 0.476943
vt 0.408249 0.499506
vt 0.004805 0.299568
vt 0.036159 0.297086
vt 0.007654 0.315230
vt 0.413634 0.103235
vt 0.083304 0.298502
vt 0.068828 0.321261
vt 0.056853 0.297471
vt 0.036709 0.446415
vt 0.038501 0.419880
vt 0.035922 0.319683
vt 0.086959 0.318806
vt 0.722798 0.627137
vt 0.701891 0.600191
vt 0.728582 0.587929
vt 0.984386 0.282538
vt 0.970603 0.285859
vt 0.974678 0.274723
vt 0.064815 0.156819
vt 0.696818 0.552052
vt 0.671343 0.545797
vt 0.709034 0.526418
vt 0.046470 0.155546
vt 0.683208 0.578885
vt 0.669965 0.566848
vt 0.692947 0.571751
vt 0.671710 0.521857
vt 0.067098 0.419179
vt 0.080395 0.430955
vt 0.049728 0.319671
vt 0.967911 0.321406
vt 0.942835 0.323914
vt 0.957105 0.304332
vt 0.271557 0.842740
vt 0.244719 0.854373
vt 0.270087 0.839889
vt 0.963302 0.271771
vt 0.971307 0.262657
vt 0.339913 0.971662
vt 0.348160 0.992094
vt 0.332878 0.985783
vt 0.337174 0.963973
vt 0.342949 0.964373
vt 0.278983 0.480273
vt 0.297595 0.501828
vt 0.275664 0.495149
vt 0.266343 0.490203
vt 0.665704 0.575059
vt 0.421150 0.528403
vt 0.621069 0.597087
vt 0.632437 0.586314
vt 0.622893 0.609858
vt 0.966317 0.248021
vt 0.969322 0.217141
vt 0.972873 0.241868
vt 0.956579 0.215725
vt 0.351324 0.972920
vt 0.356830 0.462641
vt 0.359567 0.448748
vt 0.379646 0.459294
vt 0.498307 0.503911
vt 0.489352 0.472369
vt 0.510866 0.487680
vt 0.964954 0.342448
vt 0.405939 0.901919
vt 0.398716 0.897434
vt 0.407160 0.890755
vt 0.734644 0.182772
vt 0.742319 0.213691
vt 0.715410 0.206160
vt 0.639916 0.549109
vt 0.647786 0.569977
vt 0.631763 0.566687
vt 0.647206 0.590905
vt 0.380746 0.446386
vt 0.234735 0.827934
vt 0.253572 0.829326
vt 0.726620 0.231770
vt 0.654952 0.540335
vt 0.963805 0.381942
vt 0.949841 0.354162
vt 0.964636 0.372044
vt 0.260126 0.811770
vt 0.285293 0.531041
vt 0.957740 0.386406
vt 0.239493 0.140704
vt 0.266787 0.139779
vt 0.262788 0.160901
vt 0.364889 0.602262
vt 0.350109 0.601904
vt 0.364074 0.585672
vt 0.860031 0.972323
vt 0.875631 0.967002
vt 0.868840 0.984081
vt 0.347297 0.571424
vt 0.365360 0.570093
vt 0.259524 0.511937
vt 0.986364 0.139766
vt 0.993467 0.160272
vt 0.983290 0.157684
vt 0.857214 0.085996
vt 0.834506 0.087077
vt 0.854552 0.066436
vt 0.836960 0.066502
vt 0.343893 0.593336
vt 0.358016 0.611903
vt 0.349351 0.607622
vt 0.835777 0.099700
vt 0.973767 0.385228
vt 0.970490 0.389221
vt 0.965136 0.384488
vt 0.537059 0.208961
vt 0.527035 0.229158
vt 0.521403 0.197071
vt 0.051518 0.705228
vt 0.055768 0.716643
vt 0.024255 0.714518
vt 0.245546 0.535940
vt 0.230835 0.524765
vt 0.244702 0.520702
vt 0.421998 0.974340
vt 0.396061 0.952229
vt 0.421553 0.967060
vt 0.312209 0.543714
vt 0.307624 0.548221
vt 0.971297 0.143625
vt 0.250786 0.178678
vt 0.277646 0.190495
vt 0.808823 0.029422
vt 0.787964 0.050684
vt 0.783316 0.037488
vt 0.591759 0.776516
vt 0.570490 0.804091
vt 0.553785 0.770457
vt 0.410834 0.950182
vt 0.721361 0.878238
vt 0.724149 0.844104
vt 0.739508 0.877306
vt 0.265260 0.190707
vt 0.243018 0.546577
vt 0.228138 0.539810
vt 0.574851 0.973220
vt 0.569030 0.984470
vt 0.559463 0.973307
vt 0.234882 0.993156
vt 0.234487 0.977599
vt 0.252350 0.967479
vt 0.431953 0.802577
vt 0.429490 0.824106
vt 0.404386 0.815968
vt 0.267473 0.114021
vt 0.253258 0.118698
vt 0.558206 0.964475
vt 0.128190 0.481883
vt 0.096146 0.477293
vt 0.116865 0.466739
vt 0.240052 0.558027
vt 0.251870 0.552946
vt 0.231997 0.963848
vt 0.288179 0.163508
vt 0.954916 0.110126
vt 0.958179 0.094532
vt 0.978594 0.100467
vt 0.971923 0.708741
vt 0.984859 0.706711
vt 0.968314 0.717935
vt 0.982002 0.697536
vt 0.429803 0.853051
vt 0.412947 0.847180
vt 0.562858 0.372143
vt 0.559118 0.349014
vt 0.583665 0.349669
vt 0.582415 0.371488
vt 0.567302 0.381487
vt 0.559371 0.320709
vt 0.586101 0.338337
vt 0.526689 0.425559
vt 0.550481 0.396329
vt 0.539957 0.440535
vt 0.940593 0.076998
vt 0.928039 0.080165
vt 0.926209 0.059939
vt 0.295498 0.148242
vt 0.575080 0.382218
vt 0.855394 0.868997
vt 0.860211 0.863373
vt 0.863557 0.872417
vt 0.586252 0.184592
vt 0.562847 0.188197
vt 0.592998 0.177780
vt 0.807020 0.198682
vt 0.812818 0.205734
vt 0.798672 0.207576
vt 0.574285 0.391487
vt 0.585315 0.381220
vt 0.578804 0.168780
vt 0.814506 0.231965
vt 0.800680 0.224192
vt 0.699433 0.390811
vt 0.677296 0.367441
vt 0.708172 0.362941
vt 0.733235 0.696540
vt 0.709100 0.676615
vt 0.727661 0.660485
vt 0.935896 0.943079
vt 0.966173 0.937658
vt 0.967344 0.950485
vt 0.939308 0.083471
vt 0.390117 0.825786
vt 0.390035 0.811021
vt 0.395194 0.828633
vt 0.836927 0.974096
vt 0.841121 0.963769
vt 0.853774 0.967483
vt 0.507186 0.896542
vt 0.486021 0.902824
vt 0.490317 0.888983
vt 0.195412 0.929233
vt 0.196167 0.948621
vt 0.172942 0.936759
vt 0.157785 0.979503
vt 0.156573 0.968119
vt 0.164549 0.960945
vt 0.615614 0.103486
vt 0.571787 0.129641
vt 0.593202 0.089906
vt 0.784433 0.763256
vt 0.752758 0.770813
vt 0.783131 0.736739
vt 0.252604 0.480879
vt 0.244593 0.477756
vt 0.248847 0.476759
vt 0.590670 0.404187
vt 0.601327 0.403192
vt 0.595510 0.422806
vt 0.748055 0.744902
vt 0.464655 0.925521
vt 0.456111 0.946817
vt 0.448589 0.922692
vt 0.839055 0.557015
vt 0.821502 0.550138
vt 0.823769 0.527697
vt 0.752451 0.791547
vt 0.547162 0.184375
vt 0.847947 0.994622
vt 0.831237 0.975124
vt 0.558343 0.197407
vt 0.544096 0.193347
vt 0.485027 0.912309
vt 0.829010 0.965625
vt 0.471254 0.913752
vt 0.532715 0.580349
vt 0.511461 0.575073
vt 0.502136 0.558489
vt 0.543688 0.161312
vt 0.547085 0.140414
vt 0.112373 0.371601
vt 0.130930 0.375250
vt 0.119146 0.374352
vt 0.831367 0.558098
vt 0.592239 0.876223
vt 0.608515 0.889533
vt 0.585664 0.889948
vt 0.539623 0.859120
vt 0.504281 0.871458
vt 0.506694 0.856652
vt 0.972328 0.436277
vt 0.984739 0.434554
vt 0.980197 0.457437
vt 0.293026 0.396541
vt 0.292555 0.372328
vt 0.306163 0.367625
vt 0.017679 0.269674
vt 0.003053 0.267470
vt 0.016896 0.257932
vt 0.747389 0.785457
vt 0.290452 0.385051
vt 0.508594 0.842500
vt 0.500807 0.570667
vt 0.516917 0.551450
vt 0.506124 0.532505
vt 0.973510 0.424263
vt 0.004126 0.044038
vt 0.003842 0.009764
vt 0.027941 0.043610
vt 0.321115 0.366211
vt 0.307441 0.401263
vt 0.162339 0.332076
vt 0.159429 0.374308
vt 0.142546 0.372707
vt 0.467674 0.430363
vt 0.467772 0.452173
vt 0.449256 0.421234
vt 0.193168 0.355616
vt 0.195374 0.370683
vt 0.337571 0.372693
vt 0.331198 0.398684
vt 0.446108 0.430717
vt 0.974219 0.805556
vt 0.981501 0.806581
vt 0.978337 0.818708
vt 0.009076 0.078373
vt 0.045227 0.067551
vt 0.032579 0.104625
vt 0.108713 0.198124
vt 0.110504 0.180153
vt 0.130403 0.201059
vt 0.330602 0.874493
vt 0.319368 0.884282
vt 0.319986 0.863697
vt 0.142083 0.344536
vt 0.129140 0.174012
vt 0.990060 0.808670
vt 0.980502 0.831511
vt 0.585907 0.736340
vt 0.575554 0.707354
vt 0.590104 0.693804
vt 0.162774 0.687656
vt 0.155596 0.706577
vt 0.130402 0.691465
vt 0.334950 0.891319
vt 0.296281 0.802920
vt 0.326560 0.811791
vt 0.296400 0.822483
vt 0.092710 0.062608
vt 0.094156 0.052816
vt 0.109688 0.071002
vt 0.395123 0.891723
vt 0.383683 0.920423
vt 0.387126 0.889234
vt 0.038498 0.003783
vt 0.045625 0.042270
vt 0.094670 0.912482
vt 0.122866 0.915964
vt 0.105828 0.933534
vt 0.930867 0.984823
vt 0.933677 0.971439
vt 0.942137 0.972074
vt 0.881369 0.883484
vt 0.904510 0.870343
vt 0.903835 0.889753
vt 0.612446 0.162414
vt 0.620637 0.211553
vt 0.595662 0.196147
vt 0.903972 0.039777
vt 0.886631 0.028347
vt 0.882748 0.005684
vt 0.381335 0.889229
vt 0.375547 0.931758
vt 0.357661 0.902322
vt 0.081757 0.560026
vt 0.084412 0.554343
vt 0.104025 0.555860
vt 0.111892 0.048163
vt 0.805071 0.728399
vt 0.826037 0.750324
vt 0.803587 0.749108
vt 0.709898 0.814690
vt 0.700477 0.783371
vt 0.717171 0.777786
vt 0.982637 0.471153
vt 0.982502 0.486925
vt 0.978275 0.466448
vt 0.119984 0.911146
vt 0.081698 0.539911
vt 0.084143 0.524310
vt 0.097959 0.545290
vt 0.242696 0.241889
vt 0.242804 0.264058
vt 0.236163 0.233151
vt 0.445070 0.223263
vt 0.410243 0.180029
vt 0.450123 0.203058
vt 0.439116 0.234886
vt 0.415583 0.226370
vt 0.221624 0.236846
vt 0.414765 0.236305
vt 0.976908 0.487599
vt 0.978990 0.491705
vt 0.328604 0.489725
vt 0.352696 0.483943
vt 0.348606 0.528358
vt 0.222071 0.259731
vt 0.446101 0.173003
vt 0.666628 0.345969
vt 0.665911 0.311700
vt 0.688482 0.324737
vt 0.062793 0.164913
vt 0.056699 0.185091
vt 0.040682 0.170765
vt 0.045080 0.189034
vt 0.524087 0.985707
vt 0.515549 0.965559
vt 0.529182 0.967133
vt 0.633226 0.777983
vt 0.612675 0.771058
vt 0.609630 0.753757
vt 0.469582 0.227106
vt 0.466210 0.247977
vt 0.444691 0.235509
vt 0.919109 0.176038
vt 0.937093 0.173018
vt 0.919939 0.188199
vt 0.455815 0.210138
vt 0.490619 0.215531
vt 0.189619 0.279251
vt 0.287174 0.235414
vt 0.320284 0.260910
vt 0.297836 0.266167
vt 0.119219 0.524595
vt 0.100608 0.522454
vt 0.516869 0.953217
vt 0.222224 0.274157
vt 0.924940 0.158028
vt 0.109531 0.715537
vt 0.324232 0.300082
vt 0.315187 0.309115
vt 0.288360 0.287563
vt 0.939563 0.463212
vt 0.955184 0.465944
vt 0.939692 0.489765
vt 0.924321 0.825718
vt 0.928758 0.848366
vt 0.913101 0.812244
vt 0.313990 0.945526
vt 0.305330 0.957632
vt 0.299634 0.942740
vt 0.927381 0.609888
vt 0.957661 0.635736
vt 0.939347 0.636184
vt 0.933721 0.717051
vt 0.936350 0.697496
vt 0.956336 0.707864
vt 0.340112 0.155859
vt 0.344331 0.179401
vt 0.298761 0.177434
vt 0.310710 0.224469
vt 0.291766 0.208064
vt 0.301885 0.195522
vt 0.949068 0.727018
vt 0.935652 0.727866
vt 0.075449 0.240985
vt 0.059619 0.219092
vt 0.084962 0.236220
vt 0.497238 0.232682
vt 0.299015 0.977117
vt 0.298100 0.981334
vt 0.035329 0.598222
vt 0.019035 0.586148
vt 0.028210 0.554608
vt 0.760804 0.949008
vt 0.741859 0.949285
vt 0.757099 0.916993
vt 0.558899 0.721781
vt 0.548895 0.725791
vt 0.543308 0.715763
vt 0.767283 0.914727
vt 0.770287 0.931243
vt 0.502037 0.247557
vt 0.089783 0.219303
vt 0.931970 0.336152
vt 0.918886 0.334694
vt 0.926920 0.310504
vt 0.933303 0.500567
vt 0.915785 0.508777
vt 0.914657 0.488534
vt 0.904479 0.131357
vt 0.898957 0.111943
vt 0.905379 0.093166
vt 0.878271 0.467967
vt 0.890819 0.450021
vt 0.885719 0.480051
vt 0.063100 0.243206
vt 0.039164 0.242882
vt 0.346500 0.201516
vt 0.925127 0.857193
vt 0.898845 0.856820
vt 0.737642 0.924887
vt 0.536275 0.726178
vt 0.597905 0.541966
vt 0.587105 0.532096
vt 0.604107 0.528417
vt 0.929275 0.484256
vt 0.873576 0.456979
vt 0.891410 0.430339
vt 0.879847 0.510569
vt 0.900294 0.509101
vt 0.879175 0.528239
vt 0.398939 0.588493
vt 0.413630 0.603176
vt 0.396327 0.598462
vt 0.496691 0.266553
vt 0.489149 0.276654
vt 0.518510 0.720873
vt 0.434082 0.591471
vt 0.583705 0.535015
vt 0.947821 0.880565
vt 0.932224 0.870525
vt 0.957655 0.862173
vt 0.687445 0.963421
vt 0.666008 0.944165
vt 0.684619 0.939775
vt 0.932502 0.875962
vt 0.786044 0.178877
vt 0.787276 0.195117
vt 0.779804 0.187250
vt 0.217577 0.318581
vt 0.191670 0.323375
vt 0.190898 0.286565
vt 0.955775 0.555483
vt 0.950487 0.565726
vt 0.941536 0.534721
vt 0.852218 0.213396
vt 0.865464 0.206536
vt 0.854843 0.219216
vt 0.599074 0.520776
vt 0.905100 0.491724
vt 0.825141 0.755354
vt 0.849332 0.753262
vt 0.839214 0.773384
vt 0.253967 0.313460
vt 0.243872 0.292533
vt 0.265629 0.285701
vt 0.575160 0.517381
vt 0.346897 0.187949
vt 0.039948 0.194892
vt 0.060601 0.197490
vt 0.169557 0.309528
vt 0.515978 0.713750
vt 0.516419 0.698093
vt 0.397690 0.566071
vt 0.430841 0.572239
vt 0.715944 0.496197
vt 0.728255 0.486913
vt 0.725250 0.501436
vt 0.938228 0.539848
vt 0.429615 0.078899
vt 0.418460 0.068473
vt 0.436040 0.064382
vt 0.314295 0.102074
vt 0.296635 0.066047
vt 0.324376 0.087148
vt 0.327672 0.070960
vt 0.036426 0.217936
vt 0.543266 0.693033
vt 0.229496 0.304043
vt 0.028198 0.956365
vt 0.030721 0.922516
vt 0.034116 0.936019
vt 0.835286 0.899901
vt 0.862514 0.907442
vt 0.834498 0.908947
vt 0.330926 0.066036
vt 0.720469 0.513781
vt 0.713032 0.509176
vt 0.292935 0.916426
vt 0.315403 0.905507
vt 0.293390 0.930836
vt 0.479273 0.503477
vt 0.461077 0.510868
vt 0.464414 0.487236
vt 0.692056 0.637932
vt 0.692995 0.646825
vt 0.674355 0.642555
vt 0.918647 0.478152
vt 0.909360 0.472712
vt 0.920689 0.472002
vt 0.874670 0.693313
vt 0.895249 0.698303
vt 0.885391 0.708491
vt 0.459944 0.496339
vt 0.317324 0.927146
vt 0.266641 0.334253
vt 0.236143 0.334971
vt 0.590926 0.498543
vt 0.568713 0.503969
vt 0.901934 0.444253
vt 0.925444 0.449611
vt 0.169060 0.281214
vt 0.146246 0.299662
vt 0.671589 0.652324
vt 0.514967 0.670401
vt 0.544691 0.665823
vt 0.673648 0.594128
vt 0.678126 0.602311
vt 0.673680 0.607509
vt 0.693388 0.656287
vt 0.848077 0.366329
vt 0.845704 0.375169
vt 0.821593 0.378897
vt 0.230208 0.324217
vt 0.297168 0.044184
vt 0.325091 0.047337
vt 0.277687 0.829895
vt 0.267699 0.822215
vt 0.273450 0.808727
vt 0.496551 0.525004
vt 0.138529 0.328544
vt 0.472777 0.526046
vt 0.827331 0.390737
vt 0.692424 0.677392
vt 0.705641 0.673323
vt 0.576878 0.479730
vt 0.277602 0.053530
vt 0.277800 0.047767
vt 0.341658 0.104292
vt 0.376494 0.120911
vt 0.338840 0.125911
vt 0.486449 0.547044
vt 0.662427 0.676015
vt 0.290707 0.019351
vt 0.276881 0.041212
vt 0.859647 0.698602
vt 0.863738 0.718064
vt 0.838442 0.730609
vt 0.861583 0.728272
vt 0.861539 0.743082
s 1
usemtl Material.001
f 3/1/1 1/2/2 5/3/3
f 1/4/2 2/5/4 6/6/5
f 1/4/2 3/7/1 2/8/4
f 1/2/2 4/9/6 5/10/3
f 2/11/4 11/12/7 6/13/5
f 14/14/8 3/15/1 5/16/3
f 4/9/6 1/2/2 9/17/9
f 1/2/2 6/18/5 9/17/9
f 3/19/1 20/20/10 2/11/4
f 3/21/1 14/22/8 8/23/11
f 2/11/4 20/20/10 11/12/7
f 8/23/11 14/22/8 10/24/12
f 3/19/1 13/25/13 20/20/10
f 11/12/7 20/20/10 23/26/14
f 11/12/7 23/26/14 31/27/15
f 14/14/8 16/28/16 12/29/17
f 14/30/8 5/10/3 7/31/18
f 5/32/3 4/33/6 9/34/9
f 6/35/5 15/36/19 9/37/9
f 6/38/5 11/39/7 31/40/15
f 6/38/5 31/40/15 15/41/19
f 14/42/8 12/43/17 24/44/20
f 19/45/21 20/46/10 18/47/22
f 22/48/23 10/49/12 14/50/8
f 8/23/11 13/51/13 3/52/1
f 7/53/18 16/28/16 14/14/8
f 5/32/3 9/34/9 7/54/18
f 29/55/24 24/44/20 12/43/17
f 14/56/8 24/57/20 22/58/23
f 30/59/25 20/20/10 13/60/13
f 17/61/26 21/62/27 7/31/18
f 7/31/18 26/63/28 17/61/26
f 18/47/22 20/46/10 30/64/25
f 27/65/29 23/66/14 19/67/21
f 23/26/14 20/20/10 19/68/21
f 29/55/24 12/43/17 36/69/30
f 25/70/31 7/54/18 9/34/9
f 7/53/18 21/71/27 16/28/16
f 12/43/17 42/72/32 36/69/30
f 16/28/16 21/71/27 32/73/33
f 34/74/34 30/75/25 13/76/13
f 7/54/18 33/77/35 26/78/28
f 21/79/27 17/80/26 32/81/33
f 10/49/12 35/82/36 8/83/11
f 8/23/11 35/84/36 13/51/13
f 31/85/15 23/86/14 28/87/37
f 16/88/16 42/89/32 12/90/17
f 38/91/38 23/92/14 27/93/29
f 19/67/21 18/94/22 27/65/29
f 22/95/23 35/82/36 10/49/12
f 7/54/18 25/70/31 33/77/35
f 30/96/25 34/97/34 49/98/39
f 31/99/15 28/100/37 40/101/40
f 31/99/15 40/101/40 39/102/41
f 16/103/16 32/104/33 43/105/42
f 49/106/39 18/94/22 30/107/25
f 44/108/43 34/109/34 13/51/13
f 17/80/26 26/110/28 32/81/33
f 38/111/38 45/112/44 23/113/14
f 31/99/15 39/102/41 15/114/19
f 50/115/45 28/87/37 23/86/14
f 9/116/9 46/117/46 25/118/31
f 15/119/19 46/117/46 9/116/9
f 25/120/31 47/121/47 33/122/35
f 15/123/19 39/124/41 37/125/48
f 13/51/13 35/84/36 44/108/43
f 16/126/16 43/127/42 51/128/49
f 44/129/43 49/130/39 34/131/34
f 44/132/43 35/133/36 48/134/50
f 16/126/16 51/128/49 42/89/32
f 45/112/44 50/135/45 23/113/14
f 22/136/23 41/137/51 35/138/36
f 15/119/19 37/139/48 46/117/46
f 48/140/50 49/141/39 44/142/43
f 18/94/22 38/143/38 27/65/29
f 46/144/46 47/121/47 25/120/31
f 52/145/52 24/146/20 29/147/24
f 57/148/53 49/141/39 48/140/50
f 54/149/54 41/150/51 22/151/23
f 36/152/30 52/145/52 29/147/24
f 45/153/44 53/154/55 50/155/45
f 48/134/50 35/133/36 57/156/53
f 32/157/33 26/158/28 43/159/42
f 49/106/39 38/143/38 18/94/22
f 24/160/20 59/161/56 22/151/23
f 42/162/32 51/163/49 36/69/30
f 36/69/30 51/163/49 55/164/57
f 57/165/53 35/166/36 41/167/51
f 28/100/37 50/168/45 40/101/40
f 57/165/53 41/167/51 56/169/58
f 22/151/23 59/161/56 54/149/54
f 36/152/30 60/170/59 52/145/52
f 46/117/46 61/171/60 47/172/47
f 56/173/58 41/150/51 58/174/61
f 53/175/55 40/101/40 50/168/45
f 55/164/57 51/176/49 62/177/62
f 63/178/63 24/146/20 52/145/52
f 55/179/57 62/180/62 36/152/30
f 26/181/28 33/182/35 146/183/64
f 52/145/52 60/170/59 63/184/63
f 47/185/47 146/183/64 33/182/35
f 61/186/60 71/187/65 47/188/47
f 36/152/30 62/180/62 60/170/59
f 39/189/41 65/190/66 37/191/48
f 63/178/63 66/192/67 24/146/20
f 62/193/62 51/128/49 43/127/42
f 46/194/46 37/195/48 67/196/68
f 56/197/58 58/198/61 57/199/53
f 53/200/55 45/201/44 64/202/69
f 67/196/68 61/203/60 46/194/46
f 68/204/70 37/191/48 65/190/66
f 70/205/71 58/174/61 41/150/51
f 67/196/68 37/195/48 68/206/70
f 69/207/72 57/199/53 58/198/61
f 53/175/55 64/208/69 40/101/40
f 67/196/68 71/209/65 61/203/60
f 58/198/61 80/210/73 69/207/72
f 45/201/44 38/211/38 64/202/69
f 41/150/51 54/149/54 70/205/71
f 40/101/40 73/212/74 39/102/41
f 24/213/20 72/214/75 59/215/56
f 66/216/67 72/217/75 24/218/20
f 59/161/56 70/205/71 54/149/54
f 57/199/53 69/207/72 49/219/39
f 64/220/69 73/221/74 40/222/40
f 47/223/47 71/224/65 146/225/64
f 63/226/63 60/227/59 75/228/76
f 58/174/61 70/205/71 80/229/73
f 62/230/62 75/228/76 60/227/59
f 72/214/75 74/231/77 59/215/56
f 76/232/78 75/228/76 62/230/62
f 74/231/77 70/233/71 59/215/56
f 26/158/28 84/234/79 43/159/42
f 84/235/79 26/236/28 146/237/64
f 69/207/72 80/210/73 87/238/80
f 74/231/77 78/239/81 70/233/71
f 39/240/41 73/221/74 65/241/66
f 63/242/63 81/243/82 66/244/67
f 64/245/69 38/246/38 77/247/83
f 69/248/72 87/249/80 49/250/39
f 63/242/63 75/251/76 81/243/82
f 70/252/71 82/253/84 80/254/73
f 67/196/68 79/255/85 71/209/65
f 67/256/68 85/257/86 79/258/85
f 75/251/76 76/259/78 83/260/87
f 76/232/78 62/230/62 89/261/88
f 43/262/42 89/263/88 62/264/62
f 76/259/78 89/265/88 83/260/87
f 74/231/77 88/266/89 78/239/81
f 77/267/83 96/268/90 64/269/69
f 68/270/70 85/257/86 67/256/68
f 75/251/76 92/271/91 81/243/82
f 80/272/73 82/273/84 87/274/80
f 75/251/76 83/260/87 92/271/91
f 64/275/69 96/276/90 73/277/74
f 70/252/71 88/278/89 82/253/84
f 81/279/82 72/280/75 66/281/67
f 84/282/79 89/283/88 43/284/42
f 70/285/71 78/239/81 88/266/89
f 68/286/70 65/287/66 86/288/92
f 85/257/86 90/289/93 79/258/85
f 83/290/87 89/291/88 92/292/91
f 92/292/91 97/293/94 81/294/82
f 79/295/85 146/296/64 71/297/65
f 74/298/77 72/299/75 91/300/95
f 82/301/84 93/302/96 87/303/80
f 82/304/84 88/305/89 93/306/96
f 65/307/66 73/277/74 98/308/97
f 68/309/70 86/310/92 85/311/86
f 89/291/88 94/312/98 92/292/91
f 81/313/82 95/314/99 72/315/75
f 65/316/66 98/317/97 104/318/100
f 81/319/82 97/320/94 95/321/99
f 74/322/77 91/323/95 88/324/89
f 99/325/101 77/326/83 38/327/38
f 86/310/92 65/328/66 104/329/100
f 92/292/91 94/312/98 97/330/94
f 121/331/102 98/308/97 73/277/74
f 88/305/89 103/332/103 93/333/96
f 85/334/86 100/335/104 90/336/93
f 91/323/95 102/337/105 88/324/89
f 101/338/106 72/339/75 95/340/99
f 104/341/100 98/342/97 105/343/107
f 85/311/86 86/310/92 100/344/104
f 38/345/38 49/346/39 99/347/101
f 101/348/106 91/349/95 72/350/75
f 96/351/90 121/352/102 73/353/74
f 98/354/97 108/355/108 105/356/107
f 88/324/89 102/337/105 103/357/103
f 97/358/94 94/359/98 106/360/109
f 99/361/101 96/362/90 77/363/83
f 91/323/95 111/364/110 102/337/105
f 100/344/104 114/365/111 90/366/93
f 89/367/88 107/368/112 94/369/98
f 97/358/94 109/370/113 95/340/99
f 103/357/103 102/337/105 111/371/110
f 121/372/102 108/355/108 98/354/97
f 90/336/93 114/373/111 132/374/114
f 93/375/96 103/376/103 87/377/80
f 95/340/99 109/370/113 101/338/106
f 86/310/92 104/378/100 112/379/115
f 97/358/94 106/360/109 109/370/113
f 101/348/106 113/380/116 91/349/95
f 86/310/92 112/379/115 100/344/104
f 94/369/98 107/368/112 106/381/109
f 110/382/117 121/352/102 96/351/90
f 100/383/104 112/384/115 114/385/111
f 91/386/95 129/387/118 111/388/110
f 101/389/106 109/390/113 128/391/119
f 90/392/93 132/393/114 79/394/85
f 96/362/90 99/361/101 110/395/117
f 113/380/116 129/396/118 91/397/95
f 101/398/106 128/391/119 113/399/116
f 104/400/100 115/401/120 112/384/115
f 105/402/107 117/403/121 104/404/100
f 87/405/80 133/406/122 49/407/39
f 117/408/121 115/401/120 104/400/100
f 103/409/103 111/410/110 118/411/123
f 79/412/85 132/413/114 146/414/64
f 109/415/113 106/416/109 120/417/124
f 106/418/109 107/419/112 123/420/125
f 121/421/102 122/422/126 108/423/108
f 49/424/39 116/425/127 99/347/101
f 84/426/79 107/427/112 89/428/88
f 124/429/128 112/384/115 115/401/120
f 106/416/109 123/430/125 120/417/124
f 99/431/101 125/432/129 110/433/117
f 125/434/129 121/435/102 110/436/117
f 121/421/102 119/437/130 122/422/126
f 109/390/113 120/417/124 128/438/119
f 125/439/129 119/440/130 121/421/102
f 129/387/118 126/441/131 111/388/110
f 112/384/115 132/442/114 114/385/111
f 112/384/115 124/429/128 132/442/114
f 87/443/80 103/444/103 133/445/122
f 111/446/110 126/447/131 118/411/123
f 108/448/108 122/449/126 105/450/107
f 118/451/123 126/452/131 127/453/132
f 132/413/114 130/454/133 146/414/64
f 127/453/132 133/455/122 118/456/123
f 118/457/123 133/458/122 103/459/103
f 125/432/129 99/431/101 131/460/134
f 122/449/126 117/461/121 105/450/107
f 135/462/135 124/463/128 115/464/120
f 113/465/116 134/466/136 129/467/118
f 131/460/134 119/468/130 125/432/129
f 126/469/131 129/467/118 139/470/137
f 123/471/125 137/472/138 120/473/124
f 136/474/139 133/475/122 127/476/132
f 136/477/139 127/453/132 126/452/131
f 135/462/135 132/478/114 124/463/128
f 133/479/122 140/480/140 49/481/39
f 136/477/139 126/452/131 147/482/141
f 128/483/119 138/484/142 113/485/116
f 126/469/131 139/470/137 147/486/141
f 140/480/140 116/487/127 49/481/39
f 120/488/124 143/489/143 128/490/119
f 120/488/124 137/491/138 143/489/143
f 122/492/126 119/493/130 145/494/144
f 128/490/119 143/489/143 138/495/142
f 131/496/134 141/497/145 119/493/130
f 135/462/135 142/498/146 132/478/114
f 132/478/114 142/498/146 130/499/133
f 150/500/147 141/497/145 131/496/134
f 129/467/118 134/466/136 139/470/137
f 122/492/126 145/494/144 117/501/121
f 135/502/135 115/503/120 144/504/148
f 147/505/141 133/506/122 136/507/139
f 135/508/135 144/504/148 142/509/146
f 123/510/125 107/511/112 137/512/138
f 99/513/101 164/514/149 131/515/134
f 147/516/141 139/517/137 160/518/150
f 143/489/143 137/491/138 148/519/151
f 113/520/116 149/521/152 134/522/136
f 117/523/121 167/524/153 115/503/120
f 119/493/130 141/497/145 145/494/144
f 134/522/136 153/525/154 139/517/137
f 113/520/116 165/526/155 149/521/152
f 99/527/101 116/528/127 164/529/149
f 131/530/134 164/531/149 150/532/147
f 117/501/121 145/494/144 152/533/156
f 115/503/120 167/524/153 144/504/148
f 138/534/142 151/535/157 113/536/116
f 117/501/121 152/533/156 167/537/153
f 148/538/151 154/539/158 143/540/143
f 151/535/157 165/541/155 113/536/116
f 143/540/143 154/539/158 138/534/142
f 142/509/146 158/542/159 130/543/133
f 149/544/152 153/525/154 134/522/136
f 151/535/157 138/534/142 154/539/158
f 144/504/148 158/542/159 142/509/146
f 160/545/150 133/546/122 147/547/141
f 150/548/147 164/549/149 155/550/160
f 150/532/147 155/551/160 141/552/145
f 155/553/160 156/554/161 141/555/145
f 164/556/149 163/557/162 155/553/160
f 144/558/148 167/559/153 157/560/163
f 144/558/148 157/560/163 158/561/159
f 148/538/151 161/562/164 154/539/158
f 107/511/112 222/563/165 137/512/138
f 139/564/137 153/565/154 160/566/150
f 137/567/138 161/568/164 148/569/151
f 137/567/138 222/570/165 161/568/164
f 155/553/160 163/571/162 156/554/161
f 141/572/145 156/573/161 145/574/144
f 159/575/166 140/576/140 133/577/122
f 133/546/122 160/545/150 162/578/167
f 160/579/150 153/580/154 162/581/167
f 146/582/64 200/583/168 84/584/79
f 165/585/155 166/586/169 149/587/152
f 149/587/152 169/588/170 153/565/154
f 145/574/144 156/573/161 152/589/156
f 164/549/149 168/590/171 163/591/162
f 84/584/79 200/583/168 107/592/112
f 151/535/157 179/593/172 165/541/155
f 170/594/173 130/595/133 158/596/159
f 168/590/171 156/597/161 163/591/162
f 187/598/174 157/560/163 167/559/153
f 130/595/133 170/594/173 174/599/175
f 149/600/152 166/601/169 169/602/170
f 161/603/164 173/604/176 154/605/158
f 168/606/171 175/607/177 156/608/161
f 154/605/158 179/609/172 151/610/157
f 157/560/163 170/611/173 158/561/159
f 167/612/153 152/613/156 171/614/178
f 156/615/161 176/616/179 152/617/156
f 152/617/156 176/616/179 171/618/178
f 172/619/180 179/609/172 154/605/158
f 154/605/158 173/604/176 172/619/180
f 161/620/164 222/621/165 173/604/176
f 156/615/161 175/622/177 176/616/179
f 157/623/163 177/624/181 170/625/173
f 162/626/167 159/627/166 133/628/122
f 162/629/167 153/630/154 181/631/182
f 177/632/181 157/633/163 187/634/174
f 164/635/149 182/636/183 168/637/171
f 167/638/153 178/639/184 187/598/174
f 167/612/153 171/614/178 178/640/184
f 153/641/154 169/602/170 180/642/185
f 130/643/133 200/644/168 146/645/64
f 116/646/127 186/647/186 164/648/149
f 168/637/171 182/636/183 175/649/177
f 179/650/172 183/651/187 165/652/155
f 153/641/154 180/642/185 181/653/182
f 177/632/181 174/654/175 170/655/173
f 173/656/176 222/657/165 185/658/188
f 162/659/167 181/660/182 159/661/166
f 171/662/178 176/663/179 184/664/189
f 183/665/187 166/601/169 165/666/155
f 173/656/176 185/658/188 172/667/180
f 140/668/140 186/669/186 116/670/127
f 130/671/133 174/654/175 188/672/190
f 181/660/182 180/673/185 159/661/166
f 166/601/169 189/674/191 169/602/170
f 171/675/178 184/676/189 178/677/184
f 169/602/170 189/674/191 180/642/185
f 182/678/183 192/679/192 175/680/177
f 182/678/183 164/681/149 192/679/192
f 176/663/179 175/682/177 190/683/193
f 177/684/181 187/685/174 193/686/194
f 177/684/181 191/687/195 174/688/175
f 187/685/174 178/689/184 217/690/196
f 140/691/140 159/692/166 214/693/197
f 192/694/192 190/695/193 175/696/177
f 189/674/191 166/601/169 198/697/198
f 177/684/181 193/686/194 191/687/195
f 191/687/195 188/698/190 174/688/175
f 183/699/187 195/700/199 166/701/169
f 172/702/180 196/703/200 179/704/172
f 172/705/180 185/706/188 196/707/200
f 130/708/133 188/698/190 194/709/201
f 179/704/172 196/703/200 183/710/187
f 185/706/188 222/711/165 197/712/202
f 140/713/140 214/714/197 186/715/186
f 164/716/149 186/717/186 210/718/203
f 185/706/188 197/712/202 196/707/200
f 194/719/201 226/720/204 130/721/133
f 201/722/205 190/695/193 192/694/192
f 184/664/189 199/723/206 178/724/184
f 184/664/189 176/663/179 219/725/207
f 187/685/174 217/690/196 193/686/194
f 191/726/195 194/727/201 188/728/190
f 164/729/149 201/730/205 192/731/192
f 180/732/185 202/733/208 159/734/166
f 195/735/199 198/736/198 166/737/169
f 130/738/133 226/739/204 200/740/168
f 189/741/191 211/742/209 180/743/185
f 219/725/207 199/723/206 184/664/189
f 190/744/193 219/745/207 176/746/179
f 107/747/112 200/748/168 222/749/165
f 180/743/185 211/742/209 202/750/208
f 203/751/210 164/752/149 210/753/203
f 201/754/205 204/755/211 190/756/193
f 198/757/198 211/742/209 189/741/191
f 196/703/200 206/758/212 183/710/187
f 193/759/194 208/760/213 191/726/195
f 197/761/202 205/762/214 196/703/200
f 164/729/149 203/763/210 201/730/205
f 196/703/200 205/762/214 206/758/212
f 191/726/195 207/764/215 194/727/201
f 191/726/195 208/760/213 207/764/215
f 201/730/205 203/763/210 209/765/216
f 190/766/193 204/767/211 219/768/207
f 183/710/187 212/769/217 195/770/199
f 222/771/165 205/772/214 197/773/202
f 209/774/216 204/755/211 201/754/205
f 206/758/212 212/769/217 183/710/187
f 202/775/208 213/776/218 159/777/166
f 217/778/196 178/779/184 199/780/206
f 215/781/219 203/782/210 210/783/203
f 216/784/220 207/785/215 208/786/213
f 213/787/218 202/788/208 211/789/209
f 198/757/198 223/790/221 211/742/209
f 194/791/201 207/785/215 216/784/220
f 199/780/206 230/792/222 217/778/196
f 221/793/223 219/768/207 204/767/211
f 199/794/206 219/768/207 230/795/222
f 215/781/219 209/796/216 203/782/210
f 198/797/198 195/798/199 223/799/221
f 208/786/213 193/800/194 227/801/224
f 208/786/213 227/801/224 216/784/220
f 225/802/225 212/803/217 206/804/212
f 206/805/212 205/806/214 220/807/226
f 212/803/217 223/808/221 195/809/199
f 193/800/194 217/810/196 230/811/222
f 205/806/214 222/812/165 220/807/226
f 194/813/201 216/814/220 226/815/204
f 211/816/209 228/817/227 213/818/218
f 209/819/216 224/820/228 204/821/211
f 215/822/219 224/823/228 209/824/216
f 206/804/212 220/825/226 225/802/225
f 193/800/194 230/811/222 227/801/224
f 224/820/228 221/826/223 204/821/211
f 227/827/224 236/828/229 216/814/220
f 200/829/168 226/830/204 235/831/230
f 216/814/220 236/828/229 226/815/204
f 212/803/217 225/802/225 223/808/221
f 222/832/165 200/833/168 218/834/231
f 215/822/219 210/835/203 224/823/228
f 159/836/166 229/837/232 214/838/197
f 211/839/209 223/840/221 228/841/227
f 228/842/227 229/843/232 213/844/218
f 223/799/221 225/845/225 231/846/233
f 230/847/222 243/848/234 227/849/224
f 227/850/224 232/851/235 236/852/229
f 200/853/168 235/854/230 233/855/236
f 238/856/237 230/857/222 234/858/238
f 230/859/222 219/860/207 234/861/238
f 213/862/218 229/863/232 159/864/166
f 226/865/204 236/866/229 235/867/230
f 223/840/221 231/868/233 228/841/227
f 221/869/223 234/870/238 219/871/207
f 214/872/197 237/873/239 186/874/186
f 186/875/186 242/876/240 210/877/203
f 243/848/234 230/847/222 238/878/237
f 227/879/224 243/880/234 232/881/235
f 232/881/235 235/867/230 236/866/229
f 224/882/228 244/883/241 221/884/223
f 220/885/226 240/886/242 225/887/225
f 220/885/226 222/888/165 241/889/243
f 221/884/223 244/883/241 234/890/238
f 241/889/243 222/888/165 218/891/231
f 210/892/203 242/876/240 224/893/228
f 200/894/168 233/895/236 239/896/244
f 247/897/245 234/890/238 244/883/241
f 225/887/225 240/886/242 231/898/233
f 229/899/232 286/900/246 214/901/197
f 231/902/233 251/903/247 228/904/227
f 228/904/227 251/903/247 245/905/248
f 186/906/186 249/907/249 242/908/240
f 224/909/228 242/910/240 244/911/241
f 241/912/243 240/913/242 220/914/226
f 232/915/235 248/916/250 235/917/230
f 218/918/231 246/919/251 241/912/243
f 260/920/252 234/890/238 247/897/245
f 229/921/232 228/922/227 245/923/248
f 260/924/252 232/881/235 243/880/234
f 260/924/252 243/880/234 238/925/237
f 242/908/240 249/907/249 244/926/241
f 244/883/241 252/927/253 247/897/245
f 232/915/235 260/928/252 248/916/250
f 218/834/231 200/833/168 246/929/251
f 231/930/233 240/931/242 251/932/247
f 234/933/238 260/934/252 238/935/237
f 249/936/249 255/937/254 244/938/241
f 248/939/250 233/940/236 235/941/230
f 186/942/186 237/943/239 253/944/255
f 255/945/254 249/946/249 186/947/186
f 255/948/254 250/949/256 244/950/241
f 260/951/252 247/952/245 252/953/253
f 253/954/255 255/945/254 186/947/186
f 253/954/255 257/955/257 255/945/254
f 245/956/248 254/957/258 229/958/232
f 268/959/259 240/913/242 241/912/243
f 233/940/236 256/960/260 261/961/261
f 229/962/232 278/963/262 286/964/246
f 248/965/250 260/966/252 258/967/263
f 241/968/243 246/969/251 268/970/259
f 248/965/250 256/971/260 233/972/236
f 244/950/241 250/949/256 252/953/253
f 268/959/259 267/973/264 240/913/242
f 229/958/232 254/957/258 259/974/265
f 248/965/250 258/967/263 256/971/260
f 246/975/251 200/976/168 263/977/266
f 233/978/236 261/979/261 265/980/267
f 229/981/232 259/982/265 262/983/268
f 214/984/197 266/985/269 237/986/239
f 245/987/248 251/988/247 254/957/258
f 250/949/256 280/989/270 252/953/253
f 257/990/257 250/991/256 255/937/254
f 258/967/263 260/966/252 271/992/271
f 268/970/259 246/969/251 263/993/266
f 200/994/168 269/995/272 263/996/266
f 233/978/236 265/980/267 239/997/244
f 214/998/197 286/999/246 266/985/269
f 259/1000/265 254/1001/258 262/1002/268
f 252/953/253 280/989/270 260/951/252
f 258/1003/263 261/1004/261 256/1005/260
f 240/913/242 267/1006/264 251/1007/247
f 268/970/259 263/993/266 272/1008/273
f 273/1009/274 261/1004/261 258/1003/263
f 264/1010/275 269/995/272 200/994/168
f 253/1011/255 250/1012/256 257/1013/257
f 286/1014/246 278/1015/262 270/1016/276
f 250/1012/256 253/1011/255 237/1017/239
f 278/1018/262 229/1019/232 262/1020/268
f 237/1021/239 276/1022/277 250/1023/256
f 200/1024/168 239/1025/244 264/1026/275
f 267/1027/264 274/1028/278 251/1029/247
f 272/1030/273 263/996/266 269/995/272
f 265/980/267 261/979/261 273/1031/274
f 262/1032/268 254/1033/258 278/1034/262
f 275/1035/279 278/1036/262 254/1037/258
f 272/1030/273 269/995/272 279/1038/280
f 277/1039/281 280/989/270 250/949/256
f 251/988/247 291/1040/282 254/957/258
f 254/957/258 291/1040/282 275/1041/279
f 250/1023/256 276/1022/277 277/1042/281
f 268/970/259 272/1043/273 281/1044/283
f 258/1003/263 271/1045/271 285/1046/284
f 279/1047/280 269/1048/272 264/1049/275
f 239/1025/244 288/1050/285 264/1026/275
f 258/1003/263 285/1046/284 273/1009/274
f 273/1051/274 239/1052/244 265/1053/267
f 266/1054/269 283/1055/286 237/1056/239
f 237/1056/239 283/1055/286 276/1057/277
f 251/988/247 274/1058/278 291/1040/282
f 268/970/259 281/1044/283 267/1059/264
f 275/1035/279 284/1060/287 278/1036/262
f 286/1061/246 270/1062/276 290/1063/288
f 260/1064/252 280/1065/270 271/1066/271
f 276/1057/277 283/1055/286 277/1067/281
f 279/1047/280 288/1068/285 287/1069/289
f 279/1047/280 264/1049/275 288/1068/285
f 283/1070/286 266/1071/269 284/1072/287
f 273/1073/274 289/1074/290 239/1075/244
f 239/1076/244 282/1077/291 288/1078/285
f 278/1079/262 284/1080/287 270/1081/276
f 271/1082/271 280/1083/270 285/1084/284
f 289/1074/290 282/1085/291 239/1075/244
f 286/1086/246 284/1072/287 266/1071/269
f 275/1035/279 291/1087/282 294/1088/292
f 279/1038/280 281/1089/283 272/1030/273
f 279/1038/280 295/1090/293 281/1089/283
f 270/1081/276 284/1091/287 290/1092/288
f 280/1093/270 277/1042/281 285/1094/284
f 288/1078/285 282/1077/291 287/1095/289
f 267/1059/264 291/1096/282 274/1097/278
f 290/1098/288 284/1099/287 286/1100/246
f 287/1095/289 282/1077/291 289/1101/290
f 267/1102/264 281/1103/283 291/1104/282
f 275/1035/279 294/1088/292 284/1105/287
f 283/1055/286 292/1106/294 277/1107/281
f 279/1108/280 287/1109/289 295/1110/293
f 273/1073/274 285/1111/284 289/1074/290
f 285/1094/284 277/1042/281 292/1112/294
f 285/1111/284 293/1113/295 289/1074/290
f 281/1103/283 294/1114/292 291/1104/282
f 296/1115/296 289/1101/290 293/1116/295
f 294/1117/292 281/1089/283 295/1090/293
f 284/1118/287 297/1119/297 283/1055/286
f 284/1120/287 294/1121/292 297/1122/297
f 285/1111/284 292/1123/294 293/1113/295
f 297/1119/297 292/1106/294 283/1055/286
f 289/1101/290 295/1124/293 287/1095/289
f 289/1101/290 296/1115/296 295/1124/293
f 293/1125/295 292/1106/294 297/1126/297
f 294/1127/292 295/1128/293 297/1129/297
f 296/1130/296 293/1131/295 297/1129/297
f 296/1130/296 297/1129/297 295/1128/293
