# Blender 5.0.1
# www.blender.org
mtllib box_tray.mtl
o box_tray
v 0.263390 0.101799 -0.340341
v 0.268769 0.002100 -0.327750
v 0.260571 0.000196 0.322359
v 0.265256 0.101801 0.335333
v -0.268915 0.101819 0.334972
v -0.280223 0.005231 0.322154
v -0.282801 0.007673 -0.326657
v -0.265622 0.101820 -0.337133
v 0.232447 0.101826 -0.352602
v 0.237517 0.101798 -0.297374
v 0.277184 0.101779 -0.302015
v 0.314136 0.101849 -0.310258
v 0.287015 0.101856 -0.363713
v 0.244006 0.101859 -0.388373
v 0.271955 0.000533 -0.293333
v 0.233911 0.000000 -0.300274
v 0.241214 0.001357 -0.346724
v 0.295592 0.022159 -0.347219
v 0.309321 0.025395 -0.307791
v 0.259424 0.022604 -0.380353
v 0.268258 0.000249 0.286555
v 0.306775 0.023540 0.299988
v 0.289849 0.018128 0.343922
v 0.252610 0.019380 0.377060
v 0.231726 0.000195 0.343669
v 0.226404 0.000011 0.292811
v 0.289489 0.101823 0.359485
v 0.315206 0.101863 0.303946
v 0.278091 0.101787 0.296159
v 0.237844 0.101798 0.291633
v 0.233654 0.101822 0.348549
v 0.244952 0.101838 0.384391
v -0.280908 0.101816 0.294897
v -0.316564 0.101901 0.300599
v -0.293439 0.101840 0.356657
v -0.250589 0.101849 0.383306
v -0.238730 0.101830 0.348892
v -0.244297 0.101812 0.290540
v -0.305991 0.025402 0.345072
v -0.316207 0.030281 0.299985
v -0.282080 0.005825 0.289263
v -0.255237 0.001887 0.336286
v -0.273561 0.025416 0.372741
v -0.248454 0.000020 0.293218
v -0.284006 0.007161 -0.294052
v -0.318357 0.031950 -0.305896
v -0.307584 0.027392 -0.347560
v -0.257128 0.004019 -0.341502
v -0.250314 0.000018 -0.299080
v -0.273852 0.026687 -0.376983
v -0.235419 0.101837 -0.350102
v -0.246990 0.101865 -0.384785
v -0.290022 0.101822 -0.360555
v -0.315681 0.101851 -0.305647
v -0.279208 0.101813 -0.298505
v -0.241406 0.101808 -0.294505
v -0.295091 0.101809 -0.194427
v -0.256063 0.101804 -0.193143
v -0.185491 0.101836 -0.192053
v -0.181065 0.101812 -0.299641
v -0.182960 0.101850 -0.361917
v -0.069000 0.101827 -0.307924
v -0.069867 0.101845 -0.365262
v -0.070763 0.101922 -0.399845
v -0.186486 0.101929 -0.397863
v -0.071728 0.118807 -0.420904
v -0.190815 0.116887 -0.420230
v -0.261436 0.111130 -0.414545
v -0.308691 0.114391 -0.374324
v -0.197266 0.151224 -0.430706
v -0.270723 0.150772 -0.419609
v -0.315961 0.153490 -0.379218
v -0.338803 0.156959 -0.316319
v -0.332997 0.119964 -0.309695
v -0.274104 0.190814 -0.429209
v -0.322143 0.192567 -0.385157
v -0.344599 0.192563 -0.319139
v -0.344666 0.192745 -0.201420
v -0.339426 0.160828 -0.199792
v -0.327786 0.221749 -0.388808
v -0.349342 0.221612 -0.318987
v -0.349247 0.220820 -0.199775
v -0.355191 0.248954 -0.319951
v -0.354104 0.247198 -0.197274
v -0.353815 0.244918 -0.068194
v -0.349074 0.219484 -0.068093
v -0.344522 0.191840 -0.068005
v -0.348909 0.218458 0.059467
v -0.344314 0.190572 0.059371
v -0.339105 0.158884 0.059158
v -0.339345 0.160384 -0.067905
v -0.333941 0.125934 0.058894
v -0.334063 0.126758 -0.067757
v -0.333790 0.125125 -0.196293
v -0.323634 0.102237 -0.067577
v -0.321024 0.101906 -0.195375
v -0.296260 0.101796 -0.067432
v -0.322095 0.101911 0.058686
v -0.295085 0.101791 0.058676
v -0.259653 0.101789 0.058640
v -0.258942 0.101791 -0.067251
v -0.191631 0.101816 0.058405
v -0.190562 0.101820 -0.067138
v -0.070018 0.101828 0.058175
v -0.069513 0.101831 -0.067271
v -0.068802 0.101849 -0.192162
v 0.051747 0.101833 -0.067627
v 0.051826 0.101852 -0.192913
v 0.052176 0.101822 -0.309294
v 0.052410 0.101846 -0.365362
v 0.170919 0.101835 -0.194032
v 0.169297 0.101806 -0.303034
v 0.171537 0.101842 -0.363553
v 0.174405 0.101906 -0.399107
v 0.052611 0.101921 -0.400251
v 0.177709 0.117390 -0.420413
v 0.052984 0.118622 -0.420827
v 0.181433 0.152010 -0.430919
v 0.053428 0.153049 -0.431238
v -0.073157 0.152920 -0.431210
v 0.053764 0.189950 -0.441981
v -0.076393 0.189824 -0.441951
v -0.200270 0.188776 -0.441685
v -0.075264 0.220269 -0.450835
v -0.201714 0.220563 -0.450952
v -0.277630 0.220757 -0.435361
v -0.202302 0.248981 -0.461714
v -0.277578 0.248157 -0.445857
v -0.337221 0.248527 -0.389600
v -0.290999 0.251475 -0.470538
v -0.360832 0.251631 -0.404310
v -0.382117 0.251532 -0.319671
v -0.379969 0.251618 -0.196572
v -0.373857 0.231166 -0.414060
v -0.393612 0.232182 -0.321014
v -0.393553 0.233284 -0.196514
v -0.384880 0.204534 -0.321859
v -0.386179 0.206892 -0.196483
v -0.387218 0.208373 -0.068494
v -0.393582 0.234723 -0.068414
v -0.378841 0.251588 -0.068313
v -0.393591 0.235744 0.059457
v -0.378301 0.251614 0.059488
v -0.353663 0.244332 0.059430
v -0.378465 0.251596 0.188614
v -0.353467 0.244352 0.189680
v -0.348838 0.218301 0.191112
v -0.353801 0.245398 0.313530
v -0.348971 0.219376 0.313601
v -0.344249 0.190390 0.313462
v -0.344178 0.189817 0.192606
v -0.338489 0.155003 0.309979
v -0.338825 0.157168 0.190615
v -0.332876 0.119104 0.304148
v -0.333630 0.124156 0.187089
v -0.319375 0.101941 0.186208
v -0.294021 0.101810 0.185526
v -0.258806 0.101806 0.184559
v -0.183708 0.101806 0.293909
v -0.187990 0.101836 0.183362
v -0.071050 0.101822 0.301571
v -0.070177 0.101844 0.183104
v 0.051857 0.101821 0.302458
v 0.051380 0.101848 0.183493
v 0.051578 0.101830 0.058195
v 0.171193 0.101835 0.184329
v 0.173525 0.101820 0.058500
v 0.173384 0.101822 -0.068236
v 0.252027 0.101802 0.058937
v 0.251798 0.101803 -0.068960
v 0.250167 0.101818 -0.195818
v 0.293466 0.101796 -0.069688
v 0.292109 0.101804 -0.197421
v 0.323247 0.102057 -0.070178
v 0.320204 0.101976 -0.198621
v 0.334205 0.128364 -0.070426
v 0.333528 0.124273 -0.199943
v 0.332741 0.119369 -0.314968
v 0.305369 0.115616 -0.377679
v 0.339626 0.162019 -0.204308
v 0.338909 0.157752 -0.321428
v 0.311932 0.154933 -0.383317
v 0.266363 0.151596 -0.423769
v 0.256635 0.111781 -0.417563
v 0.344789 0.193338 -0.324576
v 0.318565 0.193427 -0.388930
v 0.269968 0.191487 -0.433119
v 0.185373 0.189922 -0.441978
v 0.323411 0.223154 -0.393509
v 0.271747 0.221244 -0.440719
v 0.184760 0.221383 -0.451178
v 0.053696 0.220258 -0.450830
v 0.269796 0.247770 -0.451467
v 0.184135 0.249654 -0.461747
v 0.053684 0.248938 -0.460712
v -0.075421 0.249047 -0.460711
v 0.183570 0.251488 -0.490645
v 0.053433 0.251510 -0.488796
v -0.076249 0.251453 -0.488554
v -0.202401 0.251493 -0.489358
v 0.053226 0.229359 -0.499752
v -0.077059 0.229657 -0.499811
v -0.204828 0.229660 -0.499826
v -0.300605 0.230141 -0.484471
v -0.077944 0.200943 -0.487010
v -0.207636 0.201228 -0.487436
v -0.293299 0.202499 -0.472737
v -0.364024 0.202610 -0.405730
v -0.213234 0.170349 -0.479946
v -0.296089 0.170967 -0.460152
v -0.353624 0.173177 -0.405721
v -0.377838 0.175844 -0.324236
v -0.293439 0.128302 -0.450646
v -0.349804 0.130965 -0.397063
v -0.369768 0.134947 -0.324938
v -0.372013 0.146057 -0.200007
v -0.378516 0.179274 -0.196712
v -0.343801 0.079768 -0.387851
v -0.360204 0.086729 -0.319070
v -0.360937 0.090555 -0.196206
v -0.349637 0.054251 -0.314113
v -0.351460 0.056408 -0.194611
v -0.354507 0.061004 -0.069248
v -0.362257 0.097260 -0.069067
v -0.372854 0.150267 -0.068772
v -0.363035 0.101229 0.058764
v -0.373636 0.154224 0.059105
v -0.379469 0.184046 0.059291
v -0.379067 0.182006 -0.068599
v -0.388059 0.209576 0.059394
v -0.379222 0.182844 0.188750
v -0.387540 0.208854 0.188538
v -0.393587 0.235078 0.188549
v -0.385880 0.206221 0.316705
v -0.393642 0.233675 0.315359
v -0.380448 0.251580 0.314006
v -0.377398 0.231932 0.410740
v -0.362730 0.251590 0.399673
v -0.339808 0.247342 0.386493
v -0.281272 0.249228 0.444597
v -0.280274 0.221657 0.433573
v -0.330183 0.220675 0.386472
v -0.295318 0.251470 0.468586
v -0.205912 0.251531 0.490237
v -0.205289 0.249342 0.462096
v -0.304232 0.229705 0.480852
v -0.208565 0.228524 0.499823
v -0.079728 0.227978 0.499758
v -0.078976 0.251500 0.490283
v -0.296829 0.202620 0.469219
v -0.211472 0.200487 0.486998
v -0.080645 0.199697 0.486900
v 0.051196 0.199366 0.486753
v 0.051671 0.228022 0.499823
v -0.216517 0.169232 0.479698
v -0.083899 0.169630 0.479813
v 0.050462 0.168991 0.479671
v 0.190265 0.167789 0.479397
v 0.186871 0.198935 0.486391
v -0.089885 0.128861 0.470764
v 0.049688 0.128257 0.470633
v 0.192054 0.124622 0.469813
v 0.288009 0.121648 0.452885
v 0.290367 0.166986 0.465118
v 0.048017 0.075168 0.458559
v 0.184837 0.074953 0.458543
v 0.281432 0.071599 0.444327
v 0.341617 0.073562 0.387928
v 0.346437 0.123937 0.398175
v 0.176320 0.046586 0.438171
v 0.268886 0.042215 0.414798
v 0.320999 0.042881 0.369913
v 0.342763 0.049346 0.312620
v 0.358839 0.079483 0.317778
v 0.359763 0.084267 0.193622
v 0.371044 0.141115 0.199204
v 0.368604 0.128739 0.327976
v 0.345318 0.051028 0.189079
v 0.347691 0.052714 0.059718
v 0.360608 0.088495 0.059886
v 0.314069 0.028860 0.187621
v 0.317701 0.031526 0.059380
v 0.315436 0.029876 -0.069601
v 0.346680 0.052159 -0.069640
v 0.280835 0.004843 0.186553
v 0.285075 0.007808 0.059000
v 0.283845 0.007013 -0.069518
v 0.280278 0.004287 -0.197860
v 0.314055 0.028846 -0.198863
v 0.246212 0.000049 0.058695
v 0.247172 0.000040 -0.069389
v 0.240688 0.000030 -0.197139
v 0.162368 0.000051 -0.069125
v 0.161529 0.000057 -0.196069
v 0.163842 0.000030 -0.311299
v 0.168954 0.001111 -0.368334
v 0.044116 0.000044 -0.195647
v 0.045833 0.000021 -0.314227
v 0.047311 0.001338 -0.368841
v -0.077432 0.001372 -0.369321
v -0.078162 0.025662 -0.407031
v 0.048510 0.026197 -0.407823
v 0.174801 0.024389 -0.405113
v -0.076588 0.000018 -0.314744
v -0.076120 0.000049 -0.195358
v -0.192283 0.000069 -0.194940
v -0.190077 0.000032 -0.309792
v -0.196054 0.001000 -0.367748
v -0.203746 0.024694 -0.405505
v -0.289793 0.050520 -0.415442
v -0.211183 0.049746 -0.442821
v -0.079064 0.049212 -0.442109
v -0.216139 0.079853 -0.459645
v -0.083295 0.079320 -0.459492
v 0.050796 0.078923 -0.459405
v 0.049465 0.048877 -0.441584
v 0.187885 0.077844 -0.459179
v 0.181482 0.049140 -0.441897
v 0.282033 0.073999 -0.444866
v 0.274329 0.046334 -0.419390
v 0.340965 0.076136 -0.389025
v 0.323817 0.045010 -0.372741
v 0.359243 0.081475 -0.323852
v 0.344943 0.050940 -0.319265
v 0.360192 0.086494 -0.202344
v 0.345400 0.051363 -0.199874
v 0.360710 0.089049 -0.069804
v 0.371500 0.143426 -0.207878
v 0.372252 0.147185 -0.070043
v 0.371807 0.144952 0.059959
v 0.378519 0.179322 -0.070114
v 0.378352 0.178499 0.060034
v 0.377967 0.176510 0.196251
v 0.385616 0.205890 0.060124
v 0.385197 0.205376 0.192276
v 0.384074 0.203030 0.324783
v 0.377298 0.172929 0.326501
v 0.357939 0.200677 0.409861
v 0.350329 0.169866 0.407602
v 0.287827 0.198435 0.476342
v 0.369099 0.229484 0.418829
v 0.293364 0.227727 0.490754
v 0.185538 0.227869 0.499722
v 0.283805 0.251507 0.477659
v 0.183987 0.251442 0.492076
v 0.052124 0.251472 0.490158
v 0.184360 0.250507 0.464716
v 0.052550 0.250717 0.464533
v -0.078320 0.250645 0.464407
v 0.053036 0.223170 0.451707
v -0.078634 0.223257 0.451743
v -0.204689 0.222025 0.451404
v -0.079997 0.193465 0.442894
v -0.203543 0.190728 0.442104
v -0.276385 0.191205 0.427658
v -0.200641 0.153179 0.431196
v -0.273057 0.150841 0.417755
v -0.318131 0.152410 0.377166
v -0.324381 0.191288 0.383203
v -0.266999 0.112980 0.411133
v -0.312129 0.114129 0.371482
v -0.193808 0.117429 0.420377
v -0.189323 0.101915 0.398362
v -0.073645 0.101882 0.399336
v -0.072410 0.101850 0.361982
v -0.185670 0.101847 0.360291
v -0.074838 0.119986 0.421190
v 0.053855 0.119920 0.421142
v 0.053560 0.101916 0.399298
v -0.076748 0.158087 0.432621
v 0.053683 0.156624 0.432196
v 0.184500 0.152728 0.431061
v 0.178490 0.117555 0.420434
v 0.053985 0.192420 0.442583
v 0.186392 0.190493 0.442034
v 0.271694 0.192063 0.431803
v 0.267933 0.151578 0.422446
v 0.185518 0.222629 0.451559
v 0.273071 0.222153 0.439922
v 0.324920 0.224031 0.392488
v 0.320884 0.194022 0.387088
v 0.271805 0.248764 0.451353
v 0.335792 0.250474 0.395695
v 0.357043 0.250637 0.320645
v 0.349746 0.223802 0.319026
v 0.357895 0.251604 0.410442
v 0.383498 0.251538 0.321253
v 0.382374 0.251553 0.191948
v 0.355850 0.249894 0.192307
v 0.393599 0.230366 0.323301
v 0.393593 0.231333 0.191982
v 0.393602 0.232238 0.060173
v 0.381556 0.251597 0.060204
v 0.381634 0.251583 -0.070234
v 0.355658 0.249162 -0.070154
v 0.354517 0.248926 0.060344
v 0.393619 0.232561 -0.070220
v 0.393586 0.231960 -0.201740
v 0.381884 0.251592 -0.201756
v 0.385939 0.206408 -0.070174
v 0.385596 0.205931 -0.202128
v 0.384126 0.202697 -0.330029
v 0.393597 0.231132 -0.328991
v 0.378194 0.177641 -0.206122
v 0.377426 0.173588 -0.331303
v 0.349124 0.170760 -0.409788
v 0.357093 0.201504 -0.412037
v 0.368948 0.130474 -0.332262
v 0.344952 0.126494 -0.400750
v 0.286900 0.125016 -0.455477
v 0.289530 0.168168 -0.465704
v 0.191026 0.169252 -0.479714
v 0.186641 0.200658 -0.486976
v 0.286283 0.199882 -0.478338
v 0.194129 0.126605 -0.470228
v 0.054201 0.130781 -0.471144
v 0.052739 0.170162 -0.479919
v -0.080345 0.170452 -0.479982
v 0.052982 0.200662 -0.487076
v -0.086513 0.132002 -0.471417
v -0.220241 0.126958 -0.470302
v -0.294378 0.078339 -0.434810
v -0.332446 0.048041 -0.370812
v 0.185185 0.229047 -0.499776
v 0.280849 0.251459 -0.476083
v 0.291939 0.228681 -0.492128
v 0.356307 0.251534 -0.411806
v 0.367239 0.229835 -0.420284
v 0.382754 0.251581 -0.327207
v 0.334159 0.249844 -0.396512
v 0.356896 0.250278 -0.325822
v 0.355545 0.249890 -0.202887
v 0.349586 0.222707 -0.324565
v 0.349648 0.223037 -0.205891
v 0.349740 0.223346 -0.070194
v 0.344999 0.194491 -0.207387
v 0.345205 0.195464 -0.070236
v 0.345217 0.195513 0.059900
v 0.349757 0.223437 0.060034
v 0.345163 0.195493 0.198008
v 0.349768 0.223776 0.195383
v 0.344956 0.194380 0.319678
v 0.339919 0.163802 0.194567
v 0.339106 0.158976 0.315854
v 0.315039 0.155328 0.380792
v 0.332800 0.119932 0.308648
v 0.308152 0.114410 0.375147
v 0.259524 0.111155 0.415912
v 0.174776 0.101894 0.398527
v 0.171967 0.101844 0.360957
v 0.052763 0.101849 0.362269
v 0.169534 0.101802 0.296492
v 0.250335 0.101815 0.185697
v 0.291845 0.101802 0.187007
v 0.292566 0.101794 0.059241
v 0.319975 0.102131 0.188019
v 0.322608 0.102391 0.059386
v 0.333797 0.125977 0.189530
v 0.334332 0.129154 0.059487
v 0.340098 0.164593 0.059680
v 0.340081 0.164515 -0.070388
v -0.254937 0.000061 -0.194426
v -0.194088 0.000050 -0.068894
v -0.258001 0.000073 -0.069112
v -0.292845 0.013461 -0.069164
v -0.288425 0.010296 -0.194215
v -0.328566 0.039396 -0.069183
v -0.323584 0.035776 -0.194313
v -0.291341 0.012360 0.058494
v -0.325678 0.037289 0.058445
v -0.354618 0.060984 0.058484
v -0.319834 0.032987 0.186925
v -0.351670 0.056231 0.187325
v -0.362246 0.097249 0.188780
v -0.348606 0.053749 0.308087
v -0.360612 0.088873 0.314444
v -0.370727 0.139662 0.318738
v -0.372915 0.150539 0.191879
v -0.378275 0.178000 0.318453
v -0.351629 0.132891 0.395697
v -0.354865 0.173748 0.404028
v -0.366061 0.203515 0.403132
v -0.297750 0.170486 0.458118
v -0.294279 0.127234 0.448708
v -0.222193 0.124618 0.469798
v -0.295162 0.077464 0.433358
v -0.216963 0.076801 0.458929
v -0.086301 0.075116 0.458536
v -0.211979 0.047927 0.440051
v -0.082106 0.047239 0.439124
v 0.046715 0.047389 0.439365
v -0.080826 0.023383 0.403640
v 0.045383 0.023424 0.403710
v 0.168528 0.021638 0.401085
v 0.044046 0.000424 0.364821
v 0.162338 0.000380 0.363892
v 0.042711 0.000020 0.306869
v 0.156834 0.000034 0.302423
v 0.156699 0.000053 0.185003
v 0.238850 0.000032 0.185624
v 0.041887 0.000042 0.185152
v 0.042280 0.000047 0.058347
v 0.160669 0.000051 0.058482
v -0.078029 0.000018 0.308967
v -0.076559 0.000048 0.185476
v -0.076332 0.000053 0.058392
v -0.076269 0.000048 -0.068733
v 0.043067 0.000043 -0.068823
v -0.189740 0.000067 0.185950
v -0.193385 0.000049 0.058481
v -0.253112 0.000045 0.186334
v -0.256787 0.000058 0.058527
v -0.286710 0.009020 0.186608
v -0.189124 0.000040 0.302931
v -0.079559 0.000569 0.365713
v -0.196024 0.000265 0.363399
v -0.204166 0.022360 0.402168
v -0.290595 0.049860 0.412487
v -0.345147 0.079832 0.386653
v -0.330697 0.046196 0.368639
vt 0.385024 0.955659
vt 0.368088 0.962373
vt 0.370857 0.932142
vt 0.392570 0.934678
vt 0.412797 0.939187
vt 0.397958 0.968450
vt 0.374419 0.981953
vt 0.760464 0.354872
vt 0.762177 0.373719
vt 0.741375 0.369866
vt 0.745423 0.344448
vt 0.774903 0.344217
vt 0.782314 0.365813
vt 0.755154 0.326026
vt 0.755032 0.710726
vt 0.759292 0.691139
vt 0.780038 0.698505
vt 0.770782 0.722539
vt 0.750338 0.740622
vt 0.739216 0.722349
vt 0.736382 0.694502
vt 0.385968 0.585800
vt 0.399229 0.572577
vt 0.413312 0.602976
vt 0.392998 0.607242
vt 0.370968 0.609724
vt 0.368668 0.578569
vt 0.374848 0.558948
vt 0.093579 0.586054
vt 0.087019 0.607992
vt 0.067501 0.604874
vt 0.080153 0.574186
vt 0.103604 0.559594
vt 0.110100 0.578431
vt 0.107059 0.610373
vt 0.459027 0.709821
vt 0.444623 0.722292
vt 0.439034 0.697588
vt 0.458052 0.691813
vt 0.472724 0.717599
vt 0.462328 0.737484
vt 0.476525 0.694037
vt 0.458553 0.354661
vt 0.457852 0.372508
vt 0.438740 0.365929
vt 0.444759 0.343147
vt 0.472673 0.346579
vt 0.476392 0.369818
vt 0.463271 0.327092
vt 0.095458 0.953958
vt 0.111992 0.961054
vt 0.105662 0.980041
vt 0.082106 0.966782
vt 0.068054 0.936729
vt 0.088018 0.932815
vt 0.108709 0.930621
vt 0.079312 0.875845
vt 0.100674 0.875139
vt 0.139303 0.874534
vt 0.141738 0.933427
vt 0.140708 0.967516
vt 0.203080 0.937949
vt 0.202612 0.969336
vt 0.202125 0.988266
vt 0.138781 0.987194
vt 0.201513 0.999812
vt 0.136338 0.999453
vt 0.097711 0.996343
vt 0.071824 0.974335
vt 0.424730 0.208779
vt 0.463293 0.210798
vt 0.459508 0.226779
vt 0.419431 0.228456
vt 0.867241 0.829917
vt 0.844895 0.828039
vt 0.843348 0.794845
vt 0.865167 0.795973
vt 0.846586 0.762331
vt 0.867353 0.762228
vt 0.822445 0.830221
vt 0.821534 0.794542
vt 0.409499 0.049715
vt 0.406765 0.029499
vt 0.443674 0.031972
vt 0.444744 0.050376
vt 0.507952 0.031741
vt 0.508419 0.048235
vt 0.405191 0.014518
vt 0.444141 0.016956
vt 0.509221 0.017226
vt 0.444029 0.002980
vt 0.510957 0.003650
vt 0.581407 0.004684
vt 0.581103 0.017764
vt 0.580784 0.032050
vt 0.650737 0.018143
vt 0.650315 0.032553
vt 0.649779 0.048930
vt 0.580422 0.048306
vt 0.649207 0.065988
vt 0.580067 0.065713
vt 0.509865 0.066710
vt 0.447881 0.069519
vt 0.579594 0.077659
vt 0.509714 0.077692
vt 0.045851 0.000831
vt 0.045088 0.015284
vt 0.000246 0.015284
vt 0.002159 0.002359
vt 0.065116 0.876367
vt 0.063672 0.806412
vt 0.078657 0.806329
vt 0.064501 0.737296
vt 0.079286 0.737299
vt 0.098681 0.737315
vt 0.099084 0.806226
vt 0.135914 0.737436
vt 0.136513 0.806157
vt 0.202481 0.737549
vt 0.202772 0.806218
vt 0.203175 0.874582
vt 0.269145 0.806400
vt 0.269203 0.874980
vt 0.269408 0.938686
vt 0.269543 0.969378
vt 0.334391 0.875580
vt 0.333516 0.935247
vt 0.334749 0.968374
vt 0.336323 0.987837
vt 0.269656 0.988475
vt 0.338054 0.999515
vt 0.269778 0.999757
vt 0.596703 0.211683
vt 0.664971 0.211162
vt 0.666753 0.227288
vt 0.596692 0.227725
vt 0.527416 0.227617
vt 0.528451 0.211720
vt 0.596608 0.244992
vt 0.525377 0.244884
vt 0.457591 0.244342
vt 0.830150 0.864590
vt 0.851423 0.861744
vt 0.525774 0.259127
vt 0.456570 0.259213
vt 0.812267 0.867432
vt 0.805671 0.831071
vt 0.805225 0.793612
vt 0.796059 0.871174
vt 0.790097 0.834972
vt 0.790097 0.790095
vt 0.405307 0.001251
vt 0.394396 0.055811
vt 0.361712 0.025054
vt 0.369060 0.011531
vt 0.407326 0.047741
vt 0.419030 0.094059
vt 0.404278 0.093924
vt 0.417932 0.161443
vt 0.403751 0.161080
vt 0.249272 0.466094
vt 0.290784 0.479320
vt 0.289371 0.493446
vt 0.245132 0.477671
vt 0.200867 0.070124
vt 0.211772 0.069402
vt 0.211006 0.137550
vt 0.200599 0.137509
vt 0.226640 0.068986
vt 0.225225 0.137611
vt 0.224279 0.207668
vt 0.210054 0.207668
vt 0.036936 0.064738
vt 0.036371 0.122119
vt 0.024115 0.121945
vt 0.024461 0.065073
vt 0.035975 0.179309
vt 0.023950 0.178768
vt 0.417395 0.231652
vt 0.417179 0.301609
vt 0.403656 0.301601
vt 0.403662 0.231740
vt 0.417350 0.372292
vt 0.403631 0.372899
vt 0.651080 0.004828
vt 0.722188 0.004639
vt 0.722611 0.018061
vt 0.789830 0.003969
vt 0.789503 0.017354
vt 0.789044 0.032339
vt 0.723050 0.032783
vt 0.786676 0.050638
vt 0.721531 0.049660
vt 0.783027 0.069231
vt 0.719177 0.066752
vt 0.037893 0.089155
vt 0.039885 0.043884
vt 0.052219 0.042316
vt 0.052219 0.088053
vt 0.717994 0.077030
vt 0.648472 0.077507
vt 0.065975 0.667491
vt 0.079854 0.667862
vt 0.099129 0.668388
vt 0.140223 0.608522
vt 0.137892 0.669036
vt 0.201888 0.604316
vt 0.202379 0.669164
vt 0.269163 0.603818
vt 0.268916 0.668938
vt 0.269039 0.737526
vt 0.334497 0.668468
vt 0.335789 0.737346
vt 0.335726 0.806720
vt 0.378758 0.737098
vt 0.378648 0.807108
vt 0.377770 0.876549
vt 0.401456 0.807502
vt 0.400728 0.877423
vt 0.417756 0.807768
vt 0.416105 0.878077
vt 0.394471 0.149690
vt 0.394381 0.220003
vt 0.379690 0.219887
vt 0.381905 0.148989
vt 0.198515 0.042215
vt 0.198689 0.056393
vt 0.148749 0.061135
vt 0.147818 0.047252
vt 0.113718 0.054915
vt 0.116381 0.042215
vt 0.384573 0.086023
vt 0.361097 0.146616
vt 0.363414 0.082504
vt 0.365699 0.048592
vt 0.387379 0.051660
vt 0.752041 0.237833
vt 0.718680 0.237302
vt 0.715822 0.215567
vt 0.750217 0.217013
vt 0.343793 0.080796
vt 0.344466 0.045537
vt 0.753873 0.258274
vt 0.717952 0.258699
vt 0.715020 0.247416
vt 0.668633 0.245026
vt 0.713312 0.228354
vt 0.755086 0.274066
vt 0.716815 0.274641
vt 0.715789 0.261527
vt 0.668068 0.259740
vt 0.596350 0.259169
vt 0.678906 0.261806
vt 0.712903 0.289118
vt 0.675642 0.277292
vt 0.667495 0.272560
vt 0.596118 0.272322
vt 0.525463 0.272332
vt 0.180384 0.017126
vt 0.108982 0.016639
vt 0.109282 0.000819
vt 0.180517 0.001750
vt 0.251500 0.001803
vt 0.251052 0.017046
vt 0.320552 0.001284
vt 0.320502 0.016419
vt 0.068918 0.078894
vt 0.062374 0.132699
vt 0.049011 0.130624
vt 0.055714 0.076434
vt 0.062146 0.023329
vt 0.075145 0.026185
vt 0.387188 0.478949
vt 0.344897 0.494175
vt 0.343378 0.479446
vt 0.384332 0.466094
vt 0.512915 0.090985
vt 0.582844 0.090745
vt 0.582387 0.107861
vt 0.511408 0.107888
vt 0.464391 0.109876
vt 0.460361 0.093515
vt 0.425105 0.121290
vt 0.419658 0.105034
vt 0.508428 0.125241
vt 0.462908 0.128426
vt 0.430938 0.136595
vt 0.243007 0.023160
vt 0.242128 0.067733
vt 0.227211 0.023103
vt 0.464481 0.152240
vt 0.433157 0.160027
vt 0.265963 0.027961
vt 0.264257 0.067413
vt 0.258085 0.135782
vt 0.240106 0.137532
vt 0.293769 0.033080
vt 0.290338 0.070702
vt 0.288108 0.137950
vt 0.307788 0.073472
vt 0.306505 0.138881
vt 0.303916 0.207494
vt 0.284315 0.207535
vt 0.255637 0.207612
vt 0.282002 0.277502
vt 0.253330 0.277604
vt 0.237193 0.277659
vt 0.238463 0.207656
vt 0.223479 0.277670
vt 0.237675 0.348525
vt 0.223691 0.348364
vt 0.209527 0.348327
vt 0.209330 0.277663
vt 0.224918 0.418527
vt 0.210131 0.417744
vt 0.036289 0.236699
vt 0.036936 0.292939
vt 0.024776 0.292706
vt 0.024049 0.236345
vt 0.045835 0.322665
vt 0.057149 0.318108
vt 0.073579 0.362011
vt 0.059227 0.363288
vt 0.418514 0.440929
vt 0.408870 0.487834
vt 0.396293 0.480638
vt 0.403897 0.440692
vt 0.847894 0.201134
vt 0.853343 0.245945
vt 0.837241 0.243660
vt 0.833303 0.206299
vt 0.829143 0.001251
vt 0.828577 0.014437
vt 0.372013 0.525597
vt 0.364298 0.512478
vt 0.323089 0.537504
vt 0.322719 0.522103
vt 0.059442 0.416049
vt 0.073871 0.417409
vt 0.059067 0.461060
vt 0.045835 0.458404
vt 0.078711 0.117853
vt 0.078966 0.171762
vt 0.065087 0.171908
vt 0.065068 0.118901
vt 0.511734 0.881388
vt 0.459175 0.878467
vt 0.463266 0.862401
vt 0.510175 0.864597
vt 0.581776 0.864470
vt 0.582244 0.881390
vt 0.653928 0.864576
vt 0.654154 0.881726
vt 0.507523 0.847095
vt 0.580100 0.847627
vt 0.653633 0.847579
vt 0.730146 0.847229
vt 0.728177 0.864600
vt 0.576971 0.824883
vt 0.653356 0.824867
vt 0.731281 0.823165
vt 0.783636 0.818886
vt 0.784785 0.844548
vt 0.652631 0.795214
vt 0.727508 0.795414
vt 0.780244 0.791412
vt 0.062356 0.797899
vt 0.062409 0.843062
vt 0.037811 0.841858
vt 0.037954 0.798025
vt 0.722804 0.777119
vt 0.773246 0.770981
vt 0.801298 0.763605
vt 0.812586 0.782716
vt 0.198689 0.086300
vt 0.192869 0.118382
vt 0.174896 0.116000
vt 0.179884 0.077070
vt 0.787459 0.736766
vt 0.758883 0.761261
vt 0.799368 0.705423
vt 0.172473 0.183795
vt 0.140740 0.180831
vt 0.147392 0.110505
vt 0.152341 0.071350
vt 0.191921 0.185923
vt 0.191003 0.256635
vt 0.170376 0.256820
vt 0.800928 0.637799
vt 0.784126 0.636996
vt 0.786270 0.566800
vt 0.802397 0.566989
vt 0.785245 0.496196
vt 0.802045 0.496180
vt 0.766262 0.636408
vt 0.768733 0.566588
vt 0.768262 0.496238
vt 0.766539 0.425985
vt 0.784696 0.425440
vt 0.747571 0.566379
vt 0.748287 0.496269
vt 0.744930 0.426330
vt 0.701879 0.496290
vt 0.701610 0.426801
vt 0.703048 0.363729
vt 0.705916 0.332514
vt 0.637358 0.426862
vt 0.638475 0.361956
vt 0.639347 0.332060
vt 0.571085 0.331617
vt 0.570417 0.310929
vt 0.639729 0.310678
vt 0.708860 0.312347
vt 0.571483 0.361495
vt 0.571560 0.426846
vt 0.507992 0.426907
vt 0.509371 0.364041
vt 0.506174 0.332307
vt 0.501705 0.311584
vt 0.454287 0.305972
vt 0.497355 0.291101
vt 0.569661 0.291683
vt 0.582116 0.194449
vt 0.509810 0.194303
vt 0.507099 0.175792
vt 0.579806 0.175842
vt 0.653195 0.175808
vt 0.652457 0.194467
vt 0.639999 0.292157
vt 0.728228 0.176147
vt 0.724712 0.194026
vt 0.712240 0.292177
vt 0.779651 0.180390
vt 0.775347 0.199117
vt 0.763052 0.304636
vt 0.811412 0.188613
vt 0.802036 0.207604
vt 0.790082 0.330245
vt 0.198689 0.491881
vt 0.180107 0.501242
vt 0.175045 0.466330
vt 0.193010 0.463463
vt 0.801483 0.359537
vt 0.172011 0.399993
vt 0.192497 0.398291
vt 0.801549 0.424890
vt 0.170323 0.327631
vt 0.191670 0.327228
vt 0.140251 0.403099
vt 0.137882 0.327848
vt 0.138873 0.256864
vt 0.119962 0.327930
vt 0.120165 0.256869
vt 0.121007 0.182492
vt 0.104674 0.256930
vt 0.104736 0.184763
vt 0.105860 0.112386
vt 0.122744 0.111373
vt 0.109919 0.064940
vt 0.127286 0.066069
vt 0.015332 0.840528
vt 0.000411 0.843154
vt 0.000411 0.790251
vt 0.015908 0.795025
vt 0.118947 0.025948
vt 0.093209 0.060296
vt 0.102605 0.018112
vt 0.783325 0.862817
vt 0.786332 0.880543
vt 0.727415 0.881936
vt 0.037968 0.294032
vt 0.048399 0.340897
vt 0.033335 0.341745
vt 0.024539 0.296103
vt 0.726347 0.892826
vt 0.654163 0.892203
vt 0.181848 0.537621
vt 0.109671 0.538752
vt 0.109445 0.523777
vt 0.181595 0.523595
vt 0.253228 0.523445
vt 0.253608 0.537608
vt 0.065068 0.226709
vt 0.078951 0.226616
vt 0.841100 0.336409
vt 0.830786 0.390246
vt 0.814455 0.387103
vt 0.824940 0.332988
vt 0.834238 0.281107
vt 0.850124 0.283448
vt 0.001169 0.787113
vt 0.001095 0.718127
vt 0.015103 0.718806
vt 0.015895 0.786415
vt 0.816463 0.279670
vt 0.820218 0.244526
vt 0.795056 0.278664
vt 0.797475 0.244184
vt 0.795497 0.211029
vt 0.817095 0.208852
vt 0.826365 0.029519
vt 0.822559 0.049635
vt 0.776329 0.246026
vt 0.774284 0.213204
vt 0.818959 0.069459
vt 0.069858 0.566086
vt 0.094561 0.544376
vt 0.058484 0.602952
vt 0.134600 0.539313
vt 0.137137 0.551346
vt 0.774284 0.279223
vt 0.200456 0.550801
vt 0.201136 0.571248
vt 0.139141 0.572186
vt 0.199708 0.538858
vt 0.270151 0.538871
vt 0.270084 0.550809
vt 0.049708 0.715818
vt 0.050420 0.780923
vt 0.033610 0.784745
vt 0.031797 0.716950
vt 0.033015 0.645563
vt 0.050255 0.645385
vt 0.035382 0.573959
vt 0.051872 0.577167
vt 0.016137 0.645476
vt 0.017583 0.573007
vt 0.015382 0.526213
vt 0.034861 0.528208
vt 0.001667 0.646065
vt 0.002460 0.573557
vt 0.001095 0.525519
vt 0.843697 0.133481
vt 0.843412 0.171895
vt 0.827463 0.171386
vt 0.827587 0.135048
vt 0.830769 0.095243
vt 0.846502 0.090672
vt 0.858437 0.129494
vt 0.858437 0.175763
vt 0.313036 0.475070
vt 0.312324 0.434015
vt 0.327199 0.433113
vt 0.327798 0.473294
vt 0.026512 0.486089
vt 0.061563 0.516518
vt 0.055025 0.530922
vt 0.014429 0.494174
vt 0.000358 0.445368
vt 0.014834 0.445020
vt 0.000892 0.374587
vt 0.015402 0.374769
vt 0.024539 0.439791
vt 0.032835 0.396502
vt 0.046623 0.398048
vt 0.036929 0.443229
vt 0.079956 0.113991
vt 0.090143 0.113394
vt 0.089884 0.185088
vt 0.080330 0.184548
vt 0.089658 0.257049
vt 0.080658 0.256448
vt 0.001257 0.302471
vt 0.001133 0.231070
vt 0.015339 0.231100
vt 0.016044 0.302534
vt 0.089739 0.328242
vt 0.080913 0.327669
vt 0.090323 0.400054
vt 0.081138 0.399489
vt 0.104615 0.328082
vt 0.105169 0.400118
vt 0.107319 0.469914
vt 0.091016 0.469538
vt 0.121166 0.402188
vt 0.123670 0.470531
vt 0.128551 0.512309
vt 0.111188 0.513654
vt 0.147721 0.470994
vt 0.152711 0.507486
vt 0.853967 0.483818
vt 0.810292 0.483266
vt 0.808263 0.462306
vt 0.853018 0.462343
vt 0.855890 0.508185
vt 0.811435 0.507987
vt 0.783481 0.127827
vt 0.729685 0.125081
vt 0.727197 0.107510
vt 0.781660 0.109186
vt 0.802790 0.446810
vt 0.855890 0.447628
vt 0.782160 0.152027
vt 0.731506 0.148881
vt 0.654911 0.146819
vt 0.653997 0.124835
vt 0.581159 0.124928
vt 0.654045 0.107746
vt 0.577894 0.146405
vt 0.504719 0.149475
vt 0.464071 0.180931
vt 0.436609 0.188227
vt 0.466547 0.198682
vt 0.442829 0.207604
vt 0.310770 0.042464
vt 0.430912 0.330345
vt 0.421337 0.361345
vt 0.654150 0.090662
vt 0.726374 0.090569
vt 0.042202 0.185481
vt 0.055474 0.186143
vt 0.053203 0.231623
vt 0.038026 0.232529
vt 0.784736 0.091849
vt 0.061104 0.285266
vt 0.047862 0.288642
vt 0.825323 0.103260
vt 0.819834 0.119424
vt 0.075145 0.325590
vt 0.063765 0.331148
vt 0.094881 0.518374
vt 0.000358 0.090406
vt 0.014781 0.044081
vt 0.026905 0.052441
vt 0.014506 0.091149
vt 0.015321 0.158443
vt 0.000913 0.159076
vt 0.081292 0.468019
vt 0.312612 0.147435
vt 0.312324 0.080144
vt 0.327603 0.080816
vt 0.327457 0.145777
vt 0.327328 0.220057
vt 0.313048 0.220092
vt 0.343193 0.144945
vt 0.342698 0.220021
vt 0.342711 0.291257
vt 0.327318 0.291343
vt 0.313250 0.291525
vt 0.342766 0.366856
vt 0.327174 0.365431
vt 0.312724 0.363762
vt 0.343418 0.433457
vt 0.360238 0.364958
vt 0.362937 0.431348
vt 0.365631 0.466863
vt 0.344316 0.470326
vt 0.384457 0.427385
vt 0.388192 0.463755
vt 0.806930 0.170226
vt 0.785314 0.168334
vt 0.784060 0.133696
vt 0.805915 0.135813
vt 0.382773 0.541702
vt 0.409379 0.564015
vt 0.336434 0.551217
vt 0.338384 0.539243
vt 0.054767 0.532776
vt 0.334901 0.571784
vt 0.269652 0.571078
vt 0.333577 0.607072
vt 0.377818 0.667711
vt 0.400539 0.666990
vt 0.400948 0.736928
vt 0.415934 0.666433
vt 0.417389 0.736846
vt 0.394257 0.290924
vt 0.394513 0.361334
vt 0.381087 0.362184
vt 0.379295 0.291001
vt 0.359759 0.291122
vt 0.359762 0.219924
vt 0.394830 0.424785
vt 0.086608 0.043984
vt 0.086608 0.080240
vt 0.073065 0.077453
vt 0.073868 0.045138
vt 0.328077 0.043044
vt 0.313182 0.041420
vt 0.759093 0.289118
vt 0.056044 0.008850
vt 0.062091 0.022321
vt 0.803652 0.441532
vt 0.820260 0.444502
vt 0.473705 0.427097
vt 0.506816 0.495900
vt 0.471841 0.495688
vt 0.452595 0.495585
vt 0.455243 0.427146
vt 0.432701 0.495475
vt 0.435662 0.426994
vt 0.418217 0.495362
vt 0.420132 0.426752
vt 0.453242 0.565467
vt 0.434119 0.565345
vt 0.417965 0.565280
vt 0.437182 0.635690
vt 0.419449 0.635820
vt 0.303764 0.277413
vt 0.306112 0.347949
vt 0.283986 0.348677
vt 0.307226 0.414060
vt 0.288356 0.417478
vt 0.260872 0.419748
vt 0.255152 0.350289
vt 0.240128 0.419531
vt 0.263934 0.461906
vt 0.241680 0.466407
vt 0.225724 0.465863
vt 0.424689 0.851161
vt 0.418396 0.867205
vt 0.210501 0.469975
vt 0.431001 0.835901
vt 0.462837 0.843790
vt 0.432928 0.813258
vt 0.464895 0.819716
vt 0.504579 0.822209
vt 0.464547 0.791213
vt 0.507611 0.795517
vt 0.579123 0.794874
vt 0.510314 0.777251
vt 0.581383 0.777031
vt 0.651883 0.777446
vt 0.637199 0.774377
vt 0.566706 0.774059
vt 0.567779 0.754681
vt 0.636843 0.754902
vt 0.704259 0.753647
vt 0.708135 0.773913
vt 0.636477 0.733655
vt 0.701212 0.733318
vt 0.635838 0.701932
vt 0.698297 0.699663
vt 0.698398 0.635389
vt 0.743352 0.635848
vt 0.635569 0.635304
vt 0.635974 0.565893
vt 0.700759 0.566138
vt 0.569763 0.702905
vt 0.570752 0.635310
vt 0.571065 0.565746
vt 0.571290 0.496159
vt 0.636594 0.496283
vt 0.508815 0.635405
vt 0.507011 0.565625
vt 0.474135 0.635524
vt 0.472315 0.565558
vt 0.455629 0.635608
vt 0.508977 0.699440
vt 0.568834 0.733964
vt 0.505108 0.732529
vt 0.500300 0.753698
vt 0.495626 0.774377
vt 0.452620 0.759171
vt 0.466993 0.773258
vt 0.436695 0.784168
vt 0.444615 0.763605
vt 0.430790 0.735118
vt 0.310770 0.447237
vt 0.292768 0.457035
vt 0.420979 0.701932
vt 0.211889 0.018493
vt 0.456014 0.272075
vt 0.381285 0.997941
vt 0.407936 0.976108
vt 0.708219 0.208779
vt 0.058484 0.938966
s 1
usemtl tripo_mat_5033446c-0c81-4144-bc7f-b819a30da5ce
f 1/1 9/2 10/3 11/4
f 1/1 11/4 12/5 13/6
f 1/1 13/6 14/7 9/2
f 2/8 15/9 16/10 17/11
f 2/8 18/12 19/13 15/9
f 2/8 17/11 20/14 18/12
f 3/15 21/16 22/17 23/18
f 3/15 23/18 24/19 25/20
f 3/15 25/20 26/21 21/16
f 4/22 27/23 28/24 29/25
f 4/22 29/25 30/26 31/27
f 4/22 31/27 32/28 27/23
f 5/29 33/30 34/31 35/32
f 5/29 35/32 36/33 37/34
f 5/29 37/34 38/35 33/30
f 6/36 39/37 40/38 41/39
f 6/36 42/40 43/41 39/37
f 6/36 41/39 44/42 42/40
f 7/43 45/44 46/45 47/46
f 7/43 48/47 49/48 45/44
f 7/43 47/46 50/49 48/47
f 8/50 51/51 52/52 53/53
f 8/50 53/53 54/54 55/55
f 8/50 55/55 56/56 51/51
f 56/56 55/55 57/57 58/58
f 56/56 58/58 59/59 60/60
f 56/56 60/60 61/61 51/51
f 61/61 60/60 62/62 63/63
f 61/61 63/63 64/64 65/65
f 61/61 65/65 52/52 51/51
f 65/65 64/64 66/66 67/67
f 65/65 67/67 68/68 52/52
f 68/68 69/69 53/53 52/52
f 68/70 67/71 70/72 71/73
f 68/74 71/75 72/76 69/77
f 72/76 73/78 74/79 69/77
f 72/76 71/75 75/80 76/81
f 72/82 76/83 77/84 73/85
f 77/84 78/86 79/87 73/85
f 77/84 76/83 80/88 81/89
f 77/84 81/89 82/90 78/86
f 82/90 81/89 83/91 84/92
f 82/90 84/92 85/93 86/94
f 82/90 86/94 87/95 78/86
f 87/95 86/94 88/96 89/97
f 87/95 89/97 90/98 91/99
f 87/95 91/99 79/87 78/86
f 91/99 90/98 92/100 93/101
f 91/99 93/101 94/102 79/87
f 94/102 74/103 73/85 79/87
f 94/102 93/101 95/104 96/105
f 94/106 96/107 54/108 74/109
f 96/110 95/111 97/112 57/57
f 96/110 57/57 55/55 54/54
f 97/112 95/111 98/113 99/114
f 97/112 99/114 100/115 101/116
f 97/112 101/116 58/58 57/57
f 101/116 100/115 102/117 103/118
f 101/116 103/118 59/59 58/58
f 103/118 102/117 104/119 105/120
f 103/118 105/120 106/121 59/59
f 106/121 62/62 60/60 59/59
f 106/121 105/120 107/122 108/123
f 106/121 108/123 109/124 62/62
f 109/124 110/125 63/63 62/62
f 109/124 108/123 111/126 112/127
f 109/124 112/127 113/128 110/125
f 113/128 114/129 115/130 110/125
f 113/128 112/127 10/3 9/2
f 113/128 9/2 14/7 114/129
f 115/130 64/64 63/63 110/125
f 115/130 114/129 116/131 117/132
f 115/130 117/132 66/66 64/64
f 117/133 116/134 118/135 119/136
f 117/133 119/136 120/137 66/138
f 120/137 70/72 67/71 66/138
f 120/137 119/136 121/139 122/140
f 120/137 122/140 123/141 70/72
f 123/142 75/80 71/75 70/143
f 123/141 122/140 124/144 125/145
f 123/142 125/146 126/147 75/80
f 126/147 80/148 76/81 75/80
f 126/147 125/146 127/149 128/150
f 126/147 128/150 129/151 80/148
f 129/152 83/91 81/89 80/88
f 129/153 128/154 130/155 131/156
f 129/153 131/156 132/157 83/158
f 132/157 133/159 84/160 83/158
f 132/161 131/162 134/163 135/164
f 132/165 135/166 136/167 133/168
f 136/167 135/166 137/169 138/170
f 136/167 138/170 139/171 140/172
f 136/173 140/174 141/175 133/176
f 141/175 140/174 142/177 143/178
f 141/179 143/180 144/181 85/182
f 141/179 85/182 84/160 133/159
f 144/181 143/180 145/183 146/184
f 144/185 146/186 147/187 88/96
f 144/185 88/96 86/94 85/93
f 147/187 146/186 148/188 149/189
f 147/187 149/189 150/190 151/191
f 147/187 151/191 89/97 88/96
f 151/191 150/190 152/192 153/193
f 151/191 153/193 90/98 89/97
f 153/193 152/192 154/194 155/195
f 153/193 155/195 92/100 90/98
f 155/196 154/197 34/198 156/199
f 155/195 156/200 98/201 92/100
f 156/202 34/31 33/30 157/203
f 156/202 157/203 99/114 98/113
f 157/203 33/30 38/35 158/204
f 157/203 158/204 100/115 99/114
f 158/204 38/35 159/205 160/206
f 158/204 160/206 102/117 100/115
f 160/206 159/205 161/207 162/208
f 160/206 162/208 104/119 102/117
f 162/208 161/207 163/209 164/210
f 162/208 164/210 165/211 104/119
f 165/211 107/122 105/120 104/119
f 165/211 164/210 166/212 167/213
f 165/211 167/213 168/214 107/122
f 168/214 111/126 108/123 107/122
f 168/214 167/213 169/215 170/216
f 168/214 170/216 171/217 111/126
f 171/217 10/3 112/127 111/126
f 171/217 170/216 172/218 173/219
f 171/217 173/219 11/4 10/3
f 173/219 172/218 174/220 175/221
f 173/219 175/221 12/5 11/4
f 175/222 174/223 176/224 177/225
f 175/226 177/227 178/228 12/229
f 178/228 179/230 13/231 12/229
f 178/232 177/225 180/233 181/234
f 178/232 181/234 182/235 179/236
f 182/237 183/238 184/239 179/240
f 182/235 181/234 185/241 186/242
f 182/237 186/243 187/244 183/238
f 187/245 188/246 118/135 183/247
f 187/244 186/243 189/248 190/249
f 187/245 190/250 191/251 188/246
f 191/251 192/252 121/139 188/246
f 191/253 190/249 193/254 194/255
f 191/251 194/256 195/257 192/252
f 195/257 196/258 124/144 192/252
f 195/259 194/260 197/261 198/262
f 195/259 198/262 199/263 196/264
f 199/263 200/265 127/266 196/264
f 199/267 198/268 201/269 202/270
f 199/267 202/270 203/271 200/272
f 203/273 204/274 130/275 200/276
f 203/277 202/278 205/279 206/280
f 203/277 206/280 207/281 204/282
f 207/281 208/283 134/284 204/282
f 207/281 206/280 209/285 210/286
f 207/281 210/286 211/287 208/283
f 211/288 212/289 137/169 208/290
f 211/287 210/286 213/291 214/292
f 211/288 214/293 215/294 212/289
f 215/294 216/295 217/296 212/289
f 215/294 214/293 218/297 219/298
f 215/294 219/298 220/299 216/295
f 220/299 219/298 221/300 222/301
f 220/299 222/301 223/302 224/303
f 220/299 224/303 225/304 216/295
f 225/304 224/303 226/305 227/306
f 225/304 227/306 228/307 229/308
f 225/304 229/308 217/296 216/295
f 229/308 228/307 230/309 139/171
f 229/308 139/171 138/170 217/296
f 230/309 228/307 231/310 232/311
f 230/309 232/311 233/312 142/313
f 230/309 142/313 140/172 139/171
f 233/312 232/311 234/314 235/315
f 233/316 235/317 236/318 145/319
f 233/316 145/319 143/178 142/177
f 236/320 235/321 237/322 238/323
f 236/324 238/325 239/326 148/327
f 236/324 148/327 146/184 145/183
f 239/328 240/329 241/330 242/331
f 239/332 242/333 149/189 148/188
f 239/326 238/325 243/334 240/335
f 243/334 244/336 245/337 240/335
f 243/338 238/323 237/322 246/339
f 243/338 246/339 247/340 244/341
f 247/342 248/343 249/344 244/345
f 247/346 246/347 250/348 251/349
f 247/346 251/349 252/350 248/351
f 252/350 253/352 254/353 248/351
f 252/350 251/349 255/354 256/355
f 252/350 256/355 257/356 253/352
f 257/356 258/357 259/358 253/352
f 257/356 256/355 260/359 261/360
f 257/356 261/360 262/361 258/357
f 262/361 263/362 264/363 258/357
f 262/361 261/360 265/364 266/365
f 262/361 266/365 267/366 263/362
f 267/367 268/368 269/369 263/370
f 267/366 266/365 270/371 271/372
f 267/366 271/372 272/373 268/374
f 272/375 273/376 274/377 268/378
f 272/379 271/380 24/19 23/18
f 272/379 23/18 22/17 273/381
f 274/377 275/382 276/383 277/384
f 274/377 277/384 269/385 268/378
f 274/377 273/376 278/386 275/382
f 278/386 279/387 280/388 275/382
f 278/389 273/381 22/17 281/390
f 278/389 281/390 282/391 279/392
f 282/391 283/393 284/394 279/392
f 282/391 281/390 285/395 286/396
f 282/391 286/396 287/397 283/393
f 287/397 288/398 289/399 283/393
f 287/397 286/396 290/400 291/401
f 287/397 291/401 292/402 288/398
f 292/402 16/10 15/9 288/398
f 292/402 291/401 293/403 294/404
f 292/402 294/404 295/405 16/10
f 295/405 296/406 17/11 16/10
f 295/405 294/404 297/407 298/408
f 295/405 298/408 299/409 296/406
f 299/409 300/410 301/411 302/412
f 299/409 302/412 303/413 296/406
f 299/409 298/408 304/414 300/410
f 304/414 298/408 297/407 305/415
f 304/414 305/415 306/416 307/417
f 304/414 307/417 308/418 300/410
f 308/418 48/47 50/49 309/419
f 308/418 309/419 301/411 300/410
f 308/418 307/417 49/48 48/47
f 309/419 50/49 310/420 311/421
f 309/419 311/421 312/422 301/411
f 312/423 311/424 313/425 314/426
f 312/423 314/426 315/427 316/428
f 312/422 316/429 302/412 301/411
f 316/428 315/427 317/430 318/431
f 316/429 318/432 303/413 302/412
f 318/431 317/430 319/433 320/434
f 318/432 320/435 20/14 303/413
f 320/434 319/433 321/436 322/437
f 320/435 322/438 18/12 20/14
f 322/439 321/440 323/441 324/442
f 322/438 324/443 19/13 18/12
f 324/442 323/441 325/444 326/445
f 324/443 326/446 289/399 19/13
f 326/445 325/444 327/447 284/448
f 326/446 284/394 283/393 289/399
f 327/447 325/444 328/449 329/450
f 327/447 329/450 330/451 280/388
f 327/447 280/388 279/387 284/448
f 330/451 329/450 331/452 332/453
f 330/451 332/453 333/454 276/383
f 330/451 276/383 275/382 280/388
f 333/454 332/453 334/455 335/456
f 333/454 335/456 336/457 337/458
f 333/454 337/458 277/384 276/383
f 337/458 336/457 338/459 339/460
f 337/458 339/460 269/385 277/384
f 339/461 338/462 340/463 264/464
f 339/461 264/464 263/370 269/369
f 340/465 338/459 341/466 342/467
f 340/468 342/469 343/470 259/358
f 340/468 259/358 258/357 264/363
f 343/471 342/472 344/473 345/474
f 343/470 345/475 346/476 254/353
f 343/470 254/353 253/352 259/358
f 346/477 345/478 347/479 348/480
f 346/477 348/480 349/481 249/482
f 346/483 249/344 248/343 254/484
f 349/485 348/486 350/487 351/488
f 349/485 351/488 352/489 245/490
f 349/481 245/337 244/336 249/482
f 352/491 351/492 353/493 354/494
f 352/489 354/495 355/496 241/330
f 352/489 241/330 240/329 245/490
f 355/496 354/495 356/497 357/498
f 355/496 357/498 358/499 359/500
f 355/496 359/500 242/331 241/330
f 359/501 358/502 152/192 150/190
f 359/501 150/190 149/189 242/333
f 358/499 357/498 360/503 361/504
f 358/502 361/505 154/194 152/192
f 361/506 360/507 36/33 35/32
f 361/506 35/32 34/31 154/508
f 360/507 362/509 363/510 36/33
f 360/503 357/498 356/497 362/511
f 363/510 364/512 365/513 366/514
f 363/510 366/514 37/34 36/33
f 363/510 362/509 367/515 364/512
f 367/515 368/516 369/517 364/512
f 367/518 362/519 356/520 370/521
f 367/518 370/521 371/522 368/523
f 371/522 372/524 373/525 368/523
f 371/522 370/521 353/493 374/526
f 371/522 374/526 375/527 372/524
f 375/527 376/528 377/529 372/524
f 375/527 374/526 350/530 378/531
f 375/527 378/531 379/532 376/528
f 379/533 380/534 381/535 376/536
f 379/533 378/537 347/538 382/539
f 379/533 382/539 383/540 380/534
f 383/541 384/542 385/543 380/544
f 383/545 382/546 344/547 386/548
f 383/545 386/548 387/549 384/550
f 387/549 388/551 389/552 384/550
f 387/553 386/554 341/555 390/556
f 387/557 390/558 391/559 388/560
f 391/559 392/561 393/562 388/560
f 391/559 390/558 336/457 335/456
f 391/559 335/456 334/455 392/561
f 393/563 394/564 395/565 396/566
f 393/563 396/566 389/552 388/551
f 393/562 392/561 397/567 394/568
f 397/567 398/569 399/570 394/568
f 397/567 392/561 334/455 400/571
f 397/567 400/571 401/572 398/569
f 401/572 402/573 403/574 398/569
f 401/572 400/571 331/452 404/575
f 401/572 404/575 405/576 402/573
f 405/576 406/577 407/578 402/573
f 405/576 404/575 328/449 408/579
f 405/576 408/579 409/580 406/577
f 409/581 410/582 411/583 406/584
f 409/580 408/579 323/441 321/440
f 409/581 321/585 319/586 410/582
f 411/587 412/588 413/589 414/590
f 411/583 414/591 407/592 406/584
f 411/587 410/593 415/594 412/588
f 415/594 416/595 417/596 412/588
f 415/594 410/593 319/433 317/430
f 415/594 317/430 315/427 416/595
f 417/596 418/597 205/279 419/598
f 417/596 419/598 413/589 412/588
f 417/596 416/595 420/599 418/597
f 420/599 421/600 209/285 418/597
f 420/599 416/595 315/427 314/426
f 420/599 314/426 313/425 421/600
f 421/600 213/291 210/286 209/285
f 421/600 313/425 422/601 213/291
f 422/601 218/602 214/292 213/291
f 422/601 313/425 311/424 310/603
f 422/601 310/603 423/604 218/602
f 423/605 221/300 219/298 218/297
f 423/606 310/420 50/49 47/46
f 423/606 47/46 46/45 221/607
f 419/598 205/279 202/278 201/608
f 419/598 201/608 424/609 413/589
f 424/610 201/269 198/268 197/611
f 424/610 197/611 425/612 426/613
f 424/609 426/614 414/590 413/589
f 426/613 425/612 427/615 428/616
f 426/614 428/617 407/618 414/590
f 428/616 427/615 429/619 403/620
f 428/621 403/574 402/573 407/578
f 429/622 427/623 430/624 431/625
f 429/622 431/625 432/626 399/627
f 429/628 399/570 398/569 403/574
f 432/629 431/630 433/631 434/632
f 432/629 434/632 435/633 395/634
f 432/626 395/565 394/564 399/627
f 435/633 434/632 436/635 437/636
f 435/633 437/636 438/637 439/638
f 435/633 439/638 396/639 395/634
f 439/638 438/637 440/640 441/641
f 439/638 441/641 389/642 396/639
f 441/641 440/640 442/643 385/543
f 441/641 385/543 384/542 389/642
f 442/643 440/640 443/644 444/645
f 442/643 444/645 445/646 381/647
f 442/643 381/647 380/544 385/543
f 445/646 444/645 446/648 447/649
f 445/650 447/651 448/652 377/653
f 445/650 377/653 376/536 381/535
f 448/654 447/655 27/23 32/28
f 448/654 32/28 449/656 373/657
f 448/658 373/525 372/524 377/529
f 449/656 32/28 31/27 450/659
f 449/656 450/659 451/660 369/517
f 449/656 369/517 368/516 373/657
f 451/660 450/659 452/661 163/209
f 451/660 163/209 161/207 365/513
f 451/660 365/513 364/512 369/517
f 452/661 166/212 164/210 163/209
f 452/661 450/659 31/27 30/26
f 452/661 30/26 453/662 166/212
f 453/662 169/215 167/213 166/212
f 453/662 30/26 29/25 454/663
f 453/662 454/663 455/664 169/215
f 455/664 172/218 170/216 169/215
f 455/664 454/663 456/665 457/666
f 455/664 457/666 174/220 172/218
f 457/667 456/668 458/669 459/670
f 457/667 459/670 176/224 174/223
f 459/670 458/669 443/644 460/671
f 459/670 460/671 461/672 176/224
f 461/672 180/233 177/225 176/224
f 461/672 460/671 438/637 437/636
f 461/672 437/636 436/635 180/233
f 460/671 443/644 440/640 438/637
f 458/669 456/668 28/673 446/648
f 458/669 446/648 444/645 443/644
f 456/665 454/663 29/25 28/24
f 447/674 446/675 28/676 27/677
f 436/635 185/241 181/234 180/233
f 436/635 434/632 433/631 185/241
f 433/631 189/678 186/242 185/241
f 433/631 431/630 430/679 189/678
f 430/680 193/254 190/249 189/248
f 430/624 427/623 425/681 193/682
f 425/681 197/261 194/260 193/682
f 418/597 209/285 206/280 205/279
f 408/579 328/449 325/444 323/441
f 404/575 331/452 329/450 328/449
f 400/571 334/455 332/453 331/452
f 390/558 341/466 338/459 336/457
f 386/554 344/473 342/472 341/555
f 382/546 347/479 345/478 344/547
f 378/683 350/487 348/486 347/684
f 374/526 353/493 351/492 350/530
f 370/521 356/520 354/494 353/493
f 366/514 365/513 161/207 159/205
f 366/514 159/205 38/35 37/34
f 307/417 306/416 462/685 49/48
f 462/685 306/416 463/686 464/687
f 462/685 464/687 465/688 466/689
f 462/685 466/689 45/44 49/48
f 466/689 465/688 467/690 468/691
f 466/689 468/691 46/45 45/44
f 468/691 467/690 223/692 222/693
f 468/691 222/693 221/607 46/45
f 467/690 465/688 469/694 470/695
f 467/690 470/695 471/696 223/692
f 471/696 470/695 472/697 473/698
f 471/699 473/700 474/701 226/305
f 471/699 226/305 224/303 223/302
f 474/701 473/700 475/702 476/703
f 474/701 476/703 477/704 478/705
f 474/701 478/705 227/306 226/305
f 478/705 477/704 479/706 231/310
f 478/705 231/310 228/307 227/306
f 479/706 477/704 480/707 481/708
f 479/706 481/708 482/709 234/314
f 479/706 234/314 232/311 231/310
f 482/710 250/348 246/347 237/711
f 482/709 237/712 235/315 234/314
f 482/710 481/713 483/714 250/348
f 483/714 255/354 251/349 250/348
f 483/714 481/713 480/715 484/716
f 483/714 484/716 485/717 255/354
f 485/717 260/359 256/355 255/354
f 485/717 484/716 486/718 487/719
f 485/717 487/719 488/720 260/359
f 488/720 265/364 261/360 260/359
f 488/720 487/719 489/721 490/722
f 488/720 490/722 491/723 265/364
f 491/723 270/371 266/365 265/364
f 491/724 490/725 492/726 493/727
f 491/724 493/727 494/728 270/729
f 494/728 24/19 271/380 270/729
f 494/728 493/727 495/730 496/731
f 494/728 496/731 25/20 24/19
f 496/731 495/730 497/732 498/733
f 496/731 498/733 26/21 25/20
f 498/733 499/734 500/735 26/21
f 498/733 497/732 501/736 499/734
f 501/736 502/737 503/738 499/734
f 501/736 497/732 504/739 505/740
f 501/736 505/740 506/741 502/737
f 506/741 507/742 508/743 502/737
f 506/741 505/740 509/744 510/745
f 506/741 510/745 463/686 507/742
f 510/745 509/744 511/746 512/747
f 510/745 512/747 464/687 463/686
f 512/747 511/746 513/748 469/694
f 512/747 469/694 465/688 464/687
f 513/748 511/746 44/42 41/39
f 513/748 41/39 40/38 472/697
f 513/748 472/697 470/695 469/694
f 511/746 509/744 514/749 44/42
f 514/749 504/739 515/750 516/751
f 514/749 516/751 42/40 44/42
f 514/749 509/744 505/740 504/739
f 516/751 515/750 492/726 517/752
f 516/751 517/752 43/41 42/40
f 517/752 492/726 490/725 489/753
f 517/752 489/753 518/754 43/41
f 518/755 489/721 487/719 486/718
f 518/755 486/718 519/756 520/757
f 518/754 520/758 39/37 43/41
f 520/759 519/760 476/703 475/702
f 520/758 475/761 40/38 39/37
f 519/756 486/718 484/716 480/715
f 519/760 480/707 477/704 476/703
f 515/750 495/730 493/727 492/726
f 515/750 504/739 497/732 495/730
f 508/743 297/407 294/404 293/403
f 508/743 293/403 503/738 502/737
f 508/743 507/742 305/415 297/407
f 507/742 463/686 306/416 305/415
f 503/738 293/403 291/401 290/400
f 503/738 290/400 500/735 499/734
f 500/735 290/400 286/396 285/395
f 500/735 285/395 21/16 26/21
f 475/761 473/698 472/697 40/38
f 303/413 20/14 17/11 296/406
f 289/399 288/398 15/9 19/13
f 285/395 281/390 22/17 21/16
f 217/296 138/170 137/169 212/289
f 208/290 137/169 135/166 134/762
f 204/274 134/163 131/162 130/275
f 200/265 130/155 128/154 127/266
f 196/258 127/763 125/145 124/144
f 192/252 124/144 122/140 121/139
f 188/246 121/139 119/136 118/135
f 184/764 116/131 114/129 14/7
f 184/764 14/7 13/6 179/765
f 184/766 183/247 118/135 116/134
f 98/201 95/104 93/101 92/100
f 74/767 54/54 53/53 69/69
